<svg xmlns="http://www.w3.org/2000/svg" viewBox="0 0 80 83.9"><defs><style>.cls-1{fill:#231f20;}</style></defs><g id="Layer_2" data-name="Layer 2"><g id="Layer_1-2" data-name="Layer 1"><path id="afghanistan" class="cls-1" d="M78.8,30.9v-.2c-.6-.6-.9-1.8-1.7-2.2s-1.2-.4-1.3-1.3a15.2,15.2,0,0,0-.5-2.2s-1.1-1.6-1.6-1.6-2.7.5-3.1.2-2.5-.1-3.3-.8-.9-1.1-1.9-.7a10.3,10.3,0,0,1-2.7.5L61,21.5a9.1,9.1,0,0,1-1.7-.8c-.9-.6-1-1.9-1.3-2.4a9,9,0,0,0-1.5-1.8c-.4-.3-.8-.9-1.4-1.5a5.9,5.9,0,0,0-1.9-1.1c-.8-.2-1.4-.3-1.7-.9s0-1.2-.4-1.3l-1.5-.6s-.1-1.5-.7-1.8L46.6,7.7c-.6-.3-1.4-.4-1.6-1.3a3.6,3.6,0,0,0-.5-1.2S43.2,4.4,43,3.8l-.9-1.6L40.7.7,39,.1H37l-.5.5L35,1.3c-.8.3-4,.3-4.2,1.6a6.9,6.9,0,0,1-1.1,3C29,7.3,28.9,7.7,28,7.8a4.9,4.9,0,0,1-2.1-.1,18.9,18.9,0,0,1-2.5-.9L22,6.6,20.7,5.4a8.8,8.8,0,0,1-1.4.8A23.4,23.4,0,0,0,17,8a23.4,23.4,0,0,1-3.2.7c-.7,0-.7-.2-1.4,0s-1.9,0-2.5.7S10.7,10.8,8,11l-3.4.2c-.7,0-1.9,3.7-1.9,3.7s1.4,1.2.4,1.6A4.7,4.7,0,0,0,.8,18.6,2.6,2.6,0,0,0,0,20.7a11.8,11.8,0,0,0,.4,2.5l1.2,3.2a1.3,1.3,0,0,1,.6,1.4c-.2,1.1-.7,1.6-.2,2.5a2.9,2.9,0,0,0,1.6,1.2l1,1.4s1.5-.3,1.5.9A18.2,18.2,0,0,0,6.4,37s1,1.4,1.7.9,2-1.4,2-2.5-.2-1.4.7-1.6a18.9,18.9,0,0,0,2.3-.5c.9-.4.5-.4,1.6-.4s.9-.5,1.4.5-.2.4.2,2,.5,1.4.7,2.5,0,.7-.4,2.1-.3,1.6-1.2,1.9-2.7,1.3-2.8,2.7,0-.4.1,1.9.2,3,.9,3.4.9.2.9,1.2-.5,1.4.7,1.6a4,4,0,0,0,2.1-.2s2.3.4,1.8,1.8-1.6.5-.9,2.1.9.4,1.1,2.2-.6,2.3.3,2.3a8.7,8.7,0,0,1,2.5.7l.2,2.3.3,1.4s-2.3-.9-1.9.7.7,1.6.7,1.6,2.3-.2,2.3,1.4-.4,2.1-.2,3,1.1.2.9,1.4-.1,1.9.8,2.5a3,3,0,0,0,2.3.4c.4-.1,1.2-1.6,2.1-1.5s1.4-.4,2,.2a3,3,0,0,0,1.7.5,2.8,2.8,0,0,1,1.7,1,8.7,8.7,0,0,1,1.3,1.6,4.3,4.3,0,0,0,.5,1.5c.4.6,1.3.7,1.5.8s1.9-.2,2.4.2a8.3,8.3,0,0,1,1.8,2.5c.1.4,1.3.8,1.3.8s2.7-.3,3.2-1.5,2.7-2.7,2.7-3.5,0-1.9.5-2a20.9,20.9,0,0,1,3.6-.8c.8.1,2.3.4,2.7-.5s.4-3.8,1.9-3.9,2.4-1,3.4,0a26.3,26.3,0,0,0,3.7,2.5s3.6.5,4.8-.8,2.3-2.9,2.3-3.8.4-1.2.4-2.2a19.7,19.7,0,0,0-.9-3.7s-.8-1.2-1.4-1.4A5.5,5.5,0,0,1,69,61a15.2,15.2,0,0,1-.7-2.9c0-.9.4-4.5,1-4.6s2-1.1,2.9-1.1,2.3.1,2.7-.2,1.2-4.5,1.6-5.5.7-2,1.5-1.9A1.6,1.6,0,0,0,80,43c-.1-1.9-.3-5.5-1.1-6.7s-1.3-1.4-.8-2.5a2.7,2.7,0,0,1,.9-1.4Z"/></g></g></svg>