<svg xmlns="http://www.w3.org/2000/svg" viewBox="0 0 69.4 68.5"><defs><style>.cls-1{fill:#231f20;}</style></defs><g id="Layer_2" data-name="Layer 2"><g id="Layer_1-2" data-name="Layer 1"><path id="alaska" class="cls-1" d="M63.1,68.4c-.6-1.3-.5.1-.9-2s-1.1-1.9-1.7-2.5S59,63.1,59.4,62s.6-1.1.2-2.2-2-1.8-2.5-2.9-.5-.3-.5-2,.5-2-1-2.5-2.5.7-3.2-.9-.7-.7-2.2-1-2.1-.1-2.6-1.1-.7-1.9-1.7-1.9-2.3-.4-2.5-1-1.7-2.4-2.5-2.4-.7.7-2,1.3,2.5,1.2-.5,2-4.4,1-5,.5-2.9,1.1-2.5-.8.5-1.6,1.1-2.1,2.4-.6,1.6-1.1-.4-1.4-3-.8-3.4.9-4.2,1.5-.9,1.9-1.3,2.7,1.1.5-1.7,1.7S22,48.4,19,51s-2,2.9-4.3,3.3-.8,0-2.6,1.8-1.5,2.8-3.2,2.8-1.2,3.1-2.8,1-2.7-1.3-1.5-2.3,1.5-.7,2.5-1,.5.4,1.6-1.2.9-2.3,2.7-2.4,1.5,1.5,2.2-.9,0-2.2,1.4-3.5,2.9-2.5,1.1-2.6-1.9-.5-3.5.3-1.7,1.1-3.2.8-1.9-.3-1.9-1a17.1,17.1,0,0,0-.6-2.6s1.2-.6-.9-1.1-2.3,1.1-2.1-.5,1.1-1.4.2-2.1S3,38.5,1.9,39-.5,40.8.2,38.9,2.5,36.3,3,35.5a18.6,18.6,0,0,0,1.5-4c.2-1.1-1-.5.5-1.6s.9-1.4,2.7-1.3,1.4,0,2.7.7,1.6,1,2.3.6a7.3,7.3,0,0,0,2-1.9c.5-.6,1.2-1,1.3-1.7s.7-1.5-.6-1a8.5,8.5,0,0,1-2.8.8c-1.9.4-1.6,1.8-2.4.2a11.9,11.9,0,0,1-.8-2.4s-.8,0-.7-1.8S7.6,17.5,11,16.6s5.5-.1,5.6.4-1,1,.5,1.1,1.6.5,2.5-.7,1.9-1.1.9-1.6-1.9-.4-2.4-1.4,0-1.3-.5-2.6a8.5,8.5,0,0,0-1.2-2.7c-.8-1-2.8-2.5-.3-3.1s5.1-1.2,4.6-.9,2.9-3.2,4.6-2.8A6.9,6.9,0,0,0,31,.9C32.8-.5,35.6.2,35.6.2l2.1,1.7s2.8,2.9,4.6,1.8,1.8,1.8,5,2.1S51.8,6.9,55,8c0,0,.9-.4.7.8s-1.9,30.6-1.4,31l.2.2,7.5.9a8.7,8.7,0,0,1,.6,1.6,23.2,23.2,0,0,0,2,4.5c1.1,2,.1,8,.1,8l2,2.8a13.9,13.9,0,0,0,2.3.8c.6.2.3,3.3.2,4.5s-1.6.7-2.5.9-1.1,2.4-1.2,3.6S63.1,68.4,63.1,68.4Z"/></g></g></svg>