<svg xmlns="http://www.w3.org/2000/svg" viewBox="0 0 61.2 130.4"><defs><style>.cls-1{fill:#231f20;}</style></defs><g id="Layer_2" data-name="Layer 2"><g id="Layer_1-2" data-name="Layer 1"><path id="argentina" class="cls-1" d="M56.4,23c.1,1.8.3,3-.4,3.1a3.8,3.8,0,0,0-2,3c-.1,1.8-3.3,2.7-3.3,2.7s-2.2,1.5-1.9,2.5,5,.2,5,.8-.8,5.2-.3,5.3,3.8-1,4.3-.4-.6,4.5-.4,4.9,3.1,2.5,3.8,1.9c-1.4.3-4.7,1.8-4,2.7s1.5,1.1,0,1.5a13.7,13.7,0,0,1-2.8.5c-1.5.3-1.2.1-2.9.5s-1.8.9-2.8,1a14.1,14.1,0,0,1-2.2-.1c-.6,0-1.1,0-1.1.6s-.1.8.5,1.3,2.4,1,2.5,1.5a7.6,7.6,0,0,1,.1,1.7c0,.9.2,1,.7,1.1s.6.3.7.8-1.2,2.2-2,2.7a5,5,0,0,1-3.1,1.3c-1.8.1-1.4-.1-2.5.5a3.4,3.4,0,0,1-2.4.7,9.9,9.9,0,0,0-2.9.3l-2.1.5a3.8,3.8,0,0,1,.6,1.5c.2.7.8.9.3,2A8,8,0,0,1,34,71.5c-.3.5-.3.3-.3,1.3l-2.7.3s-.8-.7-1.1.4,1,2.1,1,2.1-1.7,2.7-1.5,3.3.9,1.6.6,2.1-.1.8-.7,1.3-.1,1-.5,1.5a4.9,4.9,0,0,1-1.6,1.6,2.5,2.5,0,0,0-1.2,1l-.6,1.1a1.1,1.1,0,0,0,.1,1.4c.7.7,1.3.2.9,1.6s-.2,1.8-.2,1.8,1.2-1.4,1.1,2.3-.8,4.7-.8,4.7-.6-.2-.3,1,.7,2.1.1,2.7-.5-.4-1.5,1.6a5.8,5.8,0,0,0,.6,5.4c.6.6,1.1.8,1,2s-.7,1.4-.2,2.3,2.1,1.5,2.3,2.3-.2,1.5.3,2.2a9.8,9.8,0,0,0,1.1,1.1,12.1,12.1,0,0,0-.2,2.1c0,1.1-.5,1-.5,2s0,2.3.5,1,.3-1.2.8-1.7,2.2-.5,2.7-.5,1-.8,1.8-.4,1,0,1.5,1.2.3,1.5,1.3,1.8a14.1,14.1,0,0,0,2.9.1c1,0,1.2-.7,1.5.4s1.7,1.5.2,2-1.7,0-3.2.5l-2,.6c-.5.1-.5.5-1.4.9s-.4.7-2,.4-1,.1-2.1-.7S30,128.5,30,128s-.7-1-.7-1l-2.9-2.5H23a1.8,1.8,0,0,1-1.2-.6H20a1.1,1.1,0,0,1-.2-1c.3-.6.3-.6,0-.7A7.4,7.4,0,0,1,18,122c-.5-.2,0-1-.1-1.2s-1.3-.3-1.9-.3a3.2,3.2,0,0,1-2-1,4.4,4.4,0,0,0-1.5-1.7c-1-.9-.7-1-1.7-1.3s-1.2-.3-1.4-1-.9-.9-1.2-1.7,0-1.2-.9-1.8-1.1-.1-1.2-1.3.2-1.7-.1-2.4-.2-.1-.7-.8a4.4,4.4,0,0,1-.9-1.8,7.4,7.4,0,0,0-.5-1.9c-.3-.5-.9-.8-.9-1.4a7.1,7.1,0,0,1-.1-1.4,6.3,6.3,0,0,0-.1-2.3c-.3-1.2-.1-1.6-.8-2.3s-.7-.3-1.2-1.9-1-1.9-.7-2.7a7.7,7.7,0,0,0,.6-1.5c0-.7.4-.5.5-1.4V87.1c0-1.2-.7.3.1-3a28.1,28.1,0,0,0,1-3.8c0-.8,1.2-.9.8-2.2s-.7-1.3-.6-2.2.7-1.3.5-1.7.1-.2-.1-.7.5-.3-.3-.9-1.1-.5-1.2-1.5a51.7,51.7,0,0,1-.1-5.3c.1-3.7-.1-4,.5-5s.9-1.2.9-2.1.5-2,.1-3.1-.6-1.1-.3-1.8.7-.6.7-1.3,0,.3.1-1.4-.5-.4.2-2.5a30.4,30.4,0,0,0,.9-5.3,3,3,0,0,0-.2-2,22.1,22.1,0,0,1-.7-4.7c0-1,.2-.7.4-1.7a4.3,4.3,0,0,0,.3-1.5c-.1-.3,0-.6.1-1.4s-.1-2.5.5-4.3.9-1.1.7-2.3-1.6-3.3-1.2-4.6.9-1.2.9-3-.3-4.2.1-5.2a14,14,0,0,0,.5-5.3H6A9.2,9.2,0,0,0,4.9,1.9,9.3,9.3,0,0,1,7.3,0c.9-.2,1,1.6.7,2.6s.2,2,1.3,3.2A19.9,19.9,0,0,1,12.2,9c.5.9,1.7,1.6,2,2.6a4.9,4.9,0,0,0,1.8,3c1.3,1,2-.1,2.3-.8s-.1-2.5.1-4.3,2.5.3,2.5.3l1.3,2.5c.3.6,2,.3,2.7-.4a1.9,1.9,0,0,1,1.8-.6c.5,0,1.5,1,3.2.7s1.9-.4,3.4,1,.2,2.1,1.6,3,1.4,0,2.3.4.3,1.5,1.7,2.4,5,.1,6.3.6,0,1.6,0,2.5,0,3.2-.7,3.5-1.5,2-1.3,3.4,3.3,0,4.7-.7,2-.5,3.4-1.7A38.9,38.9,0,0,1,56.4,23Z"/></g></g></svg>