<svg xmlns="http://www.w3.org/2000/svg" viewBox="0 0 96.9 82.4"><defs><style>.cls-1{fill:#231f20;}</style></defs><g id="Layer_2" data-name="Layer 2"><g id="Layer_1-2" data-name="Layer 1"><path id="eastern_united_states" data-name="eastern united states" class="cls-1" d="M27,0h6.3c.7.3.3,5.3.3,5.3S37,3.6,39.5,4.3s4.7-3.2,5.3-.9a13,13,0,0,0,2.3,5c.5.7.7,1.8,1.7,4.6s1.6,5.6.9,6.9-2.6,3-1.1,3.9A16.7,16.7,0,0,1,52.5,27c.9.8,5-2.3,4.8-3.6s-.7-2.1.2-2.5,2.3.2,3-.7,1.9-2.4,3-2.3a9.9,9.9,0,0,0,3.5-.7s1.8-.5,1.8-1.4,10.3-.2,11.8-1.2,1.8-.8,1.8-.8-.7-3.9-.3-4.2a7.7,7.7,0,0,0,1.8-1.2,3.1,3.1,0,0,1,2.8-.6c.9.2,4.5,2.3,4,4.2s-1.9,5.6-.3,5.7,2.8-.1,3.1.9.5,1.9,1,2.1,2.4-.5,2.4-.8-.8,1-1.5,2.3a9.7,9.7,0,0,1-1.6,2.2c-2.2.8-2.6,3.6-3.3,2.5s-1.7-1.2-.9-2.8,1.5-1.4,1.3-2.9.7-1.6-.5-1.7-.6-.1-2.2.4-1.3-1.2-2.6.8-1.6,1.9-2.5,2.4S82.6,24.2,82,25l-1.4,1.7a2.3,2.3,0,0,0-.6,2,11.7,11.7,0,0,0,1.1,3.7s-.6,1.7-1.3,2.1-.9-.9-4.2,2.9-2.8,4.1-4.8,5-1.8,1-1.9,1.5-1.5,1.1-.8,2.2,0,1.4,1.1,1.9,2.3-.5,2.2,1.1A6.6,6.6,0,0,1,68,53.6c-2,1.3-4.6,5.1-7.2,5.8s-3.8,1.5-3.7,2.7,0,2.8-1.3,2.8-.6.6-.6,3.6.3,3.9.9,5a3.6,3.6,0,0,1,.9,2.9,28.5,28.5,0,0,1-.1,3.5c-.1.5,1,.3-.9,1.5s-3.5,1.7-4.2-.2-2.3-1.3-2.4-2.8a25.4,25.4,0,0,1,.5-5.2s-1.9-.5-2.1-1.5-1-3.3-1.6-3.7-1.4-1.3-2.4-.8-2.8,1.5-3.4,1.4a13.8,13.8,0,0,0-2.6-.9c-3.6-1-5.2-1.5-6.7-1.6H25.5c-.6.1-6.6,1.5-7.4,1.5s-6,1.3-7.3,2.4S9.5,73,8,73.6l-2,.9a7.5,7.5,0,0,0-1.6,2.7,7.3,7.3,0,0,1-2,3.2c-.6.3-.8.2-.4,1.3s-2-1.2-2-2.1,1.5-2,1.9-3.6S3,72.9,3,72s-.1-3.5-.1-3.5S1.6,63.9,2,63.1s-1.4-1-1.4-1S0,60.2.5,59.6s2.4-.6,2.9-.9L5.6,58s1-5.5,1-6.1.8-4,.8-4.7,3.4-1.8,3.8-2.1,2.3,1.1,2.4-.2,0-4.5.2-5.4a2.1,2.1,0,0,1,1-1.8c.4-.2,11.3-.1,11.8-.6S26.1.5,27,0Z"/></g></g></svg>