<svg xmlns="http://www.w3.org/2000/svg" viewBox="0 0 67.4 105.1"><defs><style>.cls-1{fill:#231f20;}</style></defs><g id="Layer_2" data-name="Layer 2"><g id="Layer_1-2" data-name="Layer 1"><path id="eastern_australia" data-name="eastern australia" class="cls-1" d="M0,14.2s.2.5.7-1.6.2-3.2.9-4.8S2.7,6.4,4.1,5.7,5.8,4.7,6.2,4s1.4-.9,2.5-.8,1.6.8,2.4-.5.7-1.6,1.6-1.2.4.3,1.6.7a8.6,8.6,0,0,0,5,.3c2.4-.5,2.6-1.7,2.8-.3s.2,1.6,1.1,1.6.8.2.3,1.2-.2.4-1.6,2.3-2.1,2.1-2.3,3.6a4,4,0,0,0,.2,2.2s-.7,2,.5,2,1.4-.5,3-.7,3-.4,3.2,1.2,1.3,4.6,2.3,4.8a4.8,4.8,0,0,0,2.8.2c1.8-.4,2.5.5,2.7-1.1a18.9,18.9,0,0,0,.2-3.2c0-1.2-1.8.7.5-2.8s2.8-1.2,2.3-5.1-1.6-3.6-.7-6S37.1-.1,37.7.1s1.5-.2,1.7,2.3.9,4.6.9,5.6.7,5,.7,5,1.2,1.4,2,.9,1.7-.8,1.7-2,.4-2.6.7-1.9,1.4,1.2,1.4,2.3-.1,2.1,0,3.1a5.2,5.2,0,0,0,1.3,2.2s.3,2.1.3,2.8a7,7,0,0,1,0,3,8.3,8.3,0,0,0-.1,3.5c.1,1.6.3,2.3,1,2.5a3.4,3.4,0,0,0,1.4.2c.7,0,.9-.7,1.4.2s.8,1.4,2,1.6a15,15,0,0,0,2.3,0,3.9,3.9,0,0,1,.5,1.9,7,7,0,0,0,.2,2.8c.4,1.4.4,1.6,1.2,1.8l1.5.4a19.7,19.7,0,0,1,.1,2.2,5.6,5.6,0,0,0,.4,2.3l1.4,1.1a5.8,5.8,0,0,0,1.1,1.8,2.4,2.4,0,0,0,1.4,1,12.4,12.4,0,0,1,.7,2c.2.9-.4.3.7,1.6s1.2,1.6,1.2,2.6.9,1.8.6,3.2a19,19,0,0,0-.4,3.7,19.6,19.6,0,0,1-.2,2.7c-.3,3-.2,3.9-.3,4.9s-.6.2-.7,2.1-.4,3.6-.4,3.6-1.2,1.7-2.1,1.7-2.5-.7-2.5.2-.9,1.6.4,2,1.6-.7,1.6.5-.4,1.6-1.5,2.5A7.4,7.4,0,0,1,59,81.4c-1.2.7-.5-.4-1.4,1.9s-.7,2.3-1.4,3.2-.9.9-1.2,2a5.5,5.5,0,0,0-.4,2.6,4.4,4.4,0,0,1-.3,1.8,4.9,4.9,0,0,0-1.4,2.6c0,1.3.8,1.8.1,2.7s0,.9-1.6,1l-2.3.2-2.4.5a.9.9,0,0,0-1.3-.5c-.9.5-.5.4-1.2,1.3a6.2,6.2,0,0,1-1.8,1.4c-.9.5,0,.7-.5,1.6s-.7,1.7-1.8,1.2-1.4-.4-1.7-1.4.1-1.3-1.6-1.8l-2-.5a2.7,2.7,0,0,0-.9,1.2c-.3.9.2,1.3-1,1.8s-1.3,1-2.5.2l.2-.3s0-5.7.2-7.1-.3-1.2-1-2.3.8-42.2.7-43.1S.6,51.9.6,51.9Z"/></g></g></svg>