<svg xmlns="http://www.w3.org/2000/svg" viewBox="0 0 38.9 81.3"><defs><style>.cls-1{fill:#231f20;}</style></defs><g id="Layer_2" data-name="Layer 2"><g id="Layer_1-2" data-name="Layer 1"><path id="japan" class="cls-1" d="M4.8,81.3c0-1.3.5-4.4-.2-4.6s-.7-.7-1.9-.5A6,6,0,0,1,0,75.6s-.3-1.2,1.8-2.5l3.3-1.9-1-.7s-2.3-.2-1.2-.9S4.1,68,5,67s3-6.6,4.2-8.7,4.1-1.4,4.1-1.4l1.9-5s-1.6-3.7,1.1-4.9,2.8.2,3.5-2.8,2.8-2.5,3.2-3.6.7-1,.2-2.8a11.6,11.6,0,0,0-2-3.4,21.4,21.4,0,0,1-.7-4c0-1.4-.3-3.7.9-4.3s-1-3.3-1-3.3.7-1.1-.2-1.8a3.3,3.3,0,0,1-1.4-2.5c0-.9.1-3.2.1-3.2s.9-1.4,1.6-1.5,1.4.1,1.4-1.6a20.3,20.3,0,0,0-.8-4.5s-3.8-5.4-4.5-5.8-.7-.7-.1-1.8,4,4.3,6.5,4.6a16.4,16.4,0,0,0,4.8,0l2.3-1,4.6.2A2.6,2.6,0,0,1,37,6c.3,1.9,2.8,1.2,1.6,3s-1.1,2.6-2.3,2.5-1.1-1.1-2-.9-1.6,0-1.6,1.9,1.4,2.1.2,3.7-.7,2.3-2.5,2.3a22,22,0,0,0-5.1.2c-1.8.4-2.7-.9-2.7.7s0,2,.9,2.1,1.6,0,1.3,1.1-1.4,1.8-.7,2.1,1.6-.5,1.6.4h3l.5,1.8,1.4.2c1.1.2,1.8-.7,2.1.5a4.6,4.6,0,0,0,.9,1.8s.5,0,.7,1.2a15.7,15.7,0,0,1,.4,2.5,22.1,22.1,0,0,1-.9,3.7,2.5,2.5,0,0,0-.5,2.1c.1,1.4.8,0,1,1.8a24.4,24.4,0,0,1,.2,3.5c0,1.3-.2,1.1.9,2A6.5,6.5,0,0,1,36.8,48a2.3,2.3,0,0,1,.9,1.8v2.3a4.6,4.6,0,0,1-1.3.2l-1.6-.2s-.1.5-.5,1.8-1.9,1.9-1.9,1.9,0,1.8-.7,2l-2,.3c-.7.2-1.2,0-1.6.9s0,1.1-.9,1.2-1.7-1.4-1.9.9,1.2,3.2-.5,3.7l-2.9.9s.4,1.4-.8,1.1-2.7-1.6-2.7-2.5a4.1,4.1,0,0,0-.2-1.4l-2.4,1.6s.3.9-1.5.9-2.4-2-2.1,0a31.2,31.2,0,0,0,1.3,4c.1.7,1.2.2,1,1.3s.2,1-.5,1.7a4.4,4.4,0,0,1-2.8.9,8.4,8.4,0,0,0-2.3,0c-1.5.2-2.2,6.9-2.2,6.9L5.5,81.3Z"/></g></g></svg>