<svg xmlns="http://www.w3.org/2000/svg" viewBox="0 0 34.6 57.9"><defs><style>.cls-1{fill:#231f20;}</style></defs><g id="Layer_2" data-name="Layer 2"><g id="Layer_1-2" data-name="Layer 1"><path id="madagascar" class="cls-1" d="M32.9,8.9c.2,1,1,.7,1,3s.5,5.5-1,3.5-1.5-2.8-1.5-1.5.2,3.5.2,3.5,1.2,1.7-.3,1.7-1.8-.2-1.8.5a21,21,0,0,0,.2,2.1l-1.1,1.1-.5,2.3s1.7.2.7,1.9l-1.4,2.3s.1-1.6-.2,2-.4,4-.4,4,1.1-.3-.3,1.4-2,2.3-2.3,3.2.3,1.8-.7,2.7a9.5,9.5,0,0,0-1.6,1.6l-1.1,1a14.3,14.3,0,0,0-.3,2.1,1.8,1.8,0,0,1-.6,1.3,1.9,1.9,0,0,0-.5,1.2c0,.7.2,1.1-.7,1.8s-.5.9-1.6,1.8S15.7,53,15.7,55s-.5,2.8-1.4,2.8-9.4.2-10.8,0,.9-7.3-1.1-8.5S-.7,43.8.5,42.9s.5,0,1.4-.9a3.8,3.8,0,0,0,1.4-1.9C3.9,39,4.7,39,4.7,39s-1-2.3-.3-2.3.3-2.6.3-2.6A14.7,14.7,0,0,1,5.6,32c.6-.9-.5-1.8.9-2s2.1.2,2.1-.7-.9-1-1.6-1.2-1,0-1-1.3-.6-.7-.9-1.9-1.4-.5-.2-2.1,1.3-.6,1.6-2.1S5.4,18,7.2,18s2.3.5,4.1-.2-.2-.9,2.6-.7,3,1.1,4.1,0,1.6-.7,1.8-1.9,0-1.6,1.2-2.1,1.2,0,2.1-.8,1.6-1.5,1.4-2.6-1-1.6.6-1.6,1.4.5,2.1-.3.5-.9.9-2.5,0-2,.9-2.5A18.3,18.3,0,0,0,31.4.5s.6-1.6,1.3.9,0,2.1.9,2.8,1,.2,1,1.1a20.7,20.7,0,0,1-.3,2.6Z"/></g></g></svg>