<svg xmlns="http://www.w3.org/2000/svg" viewBox="0 0 109.2 105.9"><defs><style>.cls-1{fill:#231f20;}</style></defs><g id="Layer_2" data-name="Layer 2"><g id="Layer_1-2" data-name="Layer 1"><path id="middle_east" data-name="middle east" class="cls-1" d="M81.6,2.4c-.1,1.1.6,1.6-.8,2a5.1,5.1,0,0,0-2.5,1.4s1.6,1.6-1.8.9-2.8-1.3-4.2-1.6S71,5.4,70,4.7s-1.4-.3-1.8-1.4-3-2.5-3-2.5a1.1,1.1,0,0,0-1,.8c-.1.9,1.8.9-.3,1.3L62,3.1c-.6.2-1.3-.2-1.9.3s-.6.9-1.5,1H56.9a3.2,3.2,0,0,0-1.8,1s.3.5-1.4.4a4.8,4.8,0,0,0-2.2.2s0,1.5-1.4.5-2-1-2-1.5.6-1,1.1-1.5-.4-1.4-2.3-1.1-3,.3-3.4.9-.9,1.9-1.6,1.9-2.8.3-3.3-.3a7.8,7.8,0,0,0-4-3.4C32.1.9,30,.3,29.1.9s-.1,1.4-1.9.9-3.5-1.3-4-1-2.1,0-2.1.6.8,1.6-.2,1.7A25.7,25.7,0,0,0,18,4c-.6.3-.3.5-2.5.5s-4.5.4-5.4-.4A8.3,8.3,0,0,1,8.5,2,5.3,5.3,0,0,0,7.1,1H5.9A4.9,4.9,0,0,0,4,2c-.5.6-.5,1-1,1.4s-.5.2-1.1,1-.2,1.1-.7,1.7-.8.2-1.1,1,0,.5.1,1.4.8.9,0,1.9,1.1,2.2,1.5,3.2,1.9,1.7.8,2S0,16.1.2,17.1s2.7,3.4,3.3,4.5.2,3.9,1.4,4.9a7.6,7.6,0,0,0,3.5,1.9c.6,0,2.5-1.4,2.7-.1s-.2,3.6.5,3.7,2.5,1,2.9.4-1.3-2.4,0-2.9,0-3,2.6-1.8,2.7,2.1,4.3,2.3,2.6-.4,3.7-.2,2.3,1.3,2.6,0a2.5,2.5,0,0,1,2.1-1.9c.9,0,2.9-.5,3.2.5s-.5,2.3-.3,3.4,1.2,1.4.9,7.4,1,9,.1,9.5-2.1,2.2-1.7,3,1.7,3.9,1.9,6.1.9,2.6,1.1,3.7-1.3,1.2.1,3,4.5,2.8,4.3,4,1.9,1.8,2.8,3a28,28,0,0,1,2.7,6.4c.3,1.6,1.6-.7,2.3,2s2.8,2.3,3.3,4.2A8.7,8.7,0,0,0,54,88.4c1,.5,4.2,1.2,4,3s2.7,3.5,2.7,4.7-.2,3.8-.2,3.8-.5.5.5,1.5a5.7,5.7,0,0,1,2,3.2c.2,1.5,1.2,1.3,1.2,1.3s9.8-1,13-2,7.3-2.8,7.3-3.8,0-.7,1.5-1.2a5.5,5.5,0,0,0,2.5-2.5L90,95.1s.2-2,1.5-1.7,2.7,1,2.7,0-.7.2,2.3-4.8,3.5-6.7,3.2-7.7-.2-1,.8-1.8,1.5-3.2,1.5-3.2l-.5-2.3,1-2.2s1.4-3.9.2-4.5-1.1-.8-1.1-2.2a2.9,2.9,0,0,0-1.6-2.3s0,.5-1.4,0a15.5,15.5,0,0,1-3.2-2.2s-1.6.7-1.7-.3.3-2.7-.6-2.1-1.9.3-2.4,1,.7,1.8-2.5,1.8-3.9,1-4.6-.2a7.6,7.6,0,0,1-1.1-2.6c-.3-1.5.7-.8-.9-1.8s-1.9-1.1-1.9-2a2.4,2.4,0,0,0-.5-1.4,1.2,1.2,0,0,1-1.8-.7c-.5-1.4.7-2.3-.7-3.5a6.8,6.8,0,0,1-2-2.5c-.5-1-1-1.8-1-1.8s-1.3-.7-.7-1.4.2-.9,1.7-1a4.6,4.6,0,0,0,2.7-1.1c.7-.5.4-.9,1.6-1.1s1.4-1.2,1.9.2.4,2,.4,3.9-.2,3.4.3,4.4a11.3,11.3,0,0,1,1.1,2.3l.4,1.3h1c.9,0,1.1-.7,1.4.2s0,.6.6,1.3.3,1,1.2.7,1.1-1.3,1.9-.9l1.6.5s1.3.2,1.3-.9-.2-1.6.3-2.3.9-2.4,2-.1.5,2.6,1,3.5.9,1.6,2,1.2,1.6-.3,2.3-1a7.5,7.5,0,0,1,1.4-1.1s-.2-1.8.9-2.1a12.4,12.4,0,0,0,2.3-1.4l1.2-1.4,1.1-1.5h2.6a48.6,48.6,0,0,1-1.2-5.6c-.2-1.5-2-1.7-1.4-2.9s1.2-2.8.3-3.7-2.5-1.9-2.5-3.1.5-1.2-.3-2.5a7,7,0,0,1-1.2-3.3,6.4,6.4,0,0,0-.5-2.8c-.6-1.6-2.3,0-2-2.8a78.9,78.9,0,0,0,.9-8.2l.3-2.3s-1.2-.4-1.3-.8a8.3,8.3,0,0,0-1.8-2.5c-.5-.4-2.1-.1-2.4-.2A2.3,2.3,0,0,1,94.6,5c-.4-.6-.4-1.4-.6-1.6a5.3,5.3,0,0,0-1.2-1.5A3.1,3.1,0,0,0,91.1.8,3,3,0,0,1,89.4.3c-.6-.6-1.2-.1-2-.2s-1.7,1.4-2.2,1.5a3.1,3.1,0,0,1-2.3-.4l-1-.2Z"/></g></g></svg>