<svg xmlns="http://www.w3.org/2000/svg" viewBox="0 0 56.1 42.4"><defs><style>.cls-1{fill:#231f20;}</style></defs><g id="Layer_2" data-name="Layer 2"><g id="Layer_1-2" data-name="Layer 1"><path id="new_guinea" data-name="new guinea" class="cls-1" d="M16.6,11.2s.5-2.8,1.5-3.5.3-1,.3-2.3-1-2.5.2-2.7,1.5,0,3.3-.3a11.2,11.2,0,0,0,3.5-1.2l1.5,1.5s.7.7,3,.7,3,1,4,2.8.5,2.5,3.2,4.2a27.7,27.7,0,0,0,7,3c1.5.5,2.8,1.3,2.5,2.8s1.5,2.2-.5,2.7c0,0,5.8,2.5,6.5,4.1s1.9,2.3.5,3.2-3,.1-2.8,1.2,1.2,1.8,1.6,3,1.6,2,1.6,3.4-.4,2.3,1,3.2,1.6.8,1.6,1.9v2.5a4.5,4.5,0,0,1-2.8,1c-1.8,0-2.7-1.4-3.4-1.4l-2.5-.3s-1.2-5-4.7-5.9-3.6-1.4-3.6-.7,1.3,2.3-.1,2.9a7.9,7.9,0,0,1-3,.5c-.9,0,3,1.6-1.5,1.4s-4.7-1.8-6.7-.5S20,34.7,20,34.7s-2.6.1-2.6-1.3-.7-1.6.2-2.8a3.3,3.3,0,0,0,.9-2.8c0-1.5.3-1.8.3-3.2s.9-2-.3-2.5S16.2,21.2,16,20s-.2-1.4-1.1-1.4H13.5c-1.4,0-2.5,1.1-3.7-.5s-1.4-1.6-3.7-1.6-7.3,3.4-3.4,0,4.6-3.5,4.6-3.5-4,0-4.2-1.4S2.5,8,1.7,7.6-.3,6.7.1,5.5,1.1-.2,4.7,0,8.9,1.6,10,2.1s3-1.4,3.3.4a17.9,17.9,0,0,1,0,4.8,3.9,3.9,0,0,1,1.6,2.6Z"/></g></g></svg>