<svg xmlns="http://www.w3.org/2000/svg" viewBox="0 0 65.9 66.4"><defs><style>.cls-1{fill:#231f20;}</style></defs><g id="Layer_2" data-name="Layer 2"><g id="Layer_1-2" data-name="Layer 1"><path id="northern_europe" data-name="northern europe" class="cls-1" d="M52.9,10.2l1.2.2c.9.8,1.5,1.7,2.3,2.5a13.4,13.4,0,0,0,3.4,1.3,10.4,10.4,0,0,0,2.4-.6c.5,0-.1.9-.1,1.2a24.9,24.9,0,0,0,1,3.9c.3.6.4,8.1.5,9.4a4.8,4.8,0,0,0,1.7,3.1,2,2,0,0,1,.6,1.4c0,.3-.8,1.3-.8,1.8s.1,1.2,0,1.7-.5.8-1,1.3-.3,1.4-.7,2-.8.7-1.4.9c-1.7,2.3-2.1,4.4-5,5-.6,0-2.1.5-2.2.9a6.4,6.4,0,0,0-.2,1.6l2.3,2.1c-.7,1.1-.5,1.1-.5,1.1a6.5,6.5,0,0,1-1.1.9c-.4.2-.6,1.1-.7,1.5s-.9.8-2.2,1.7-1.9,3.8-1.9,3.8-.2,2.8-.2,3.2.8,1.4.9,2.1a6,6,0,0,1-.6,2.2H41.4V62.5a8.5,8.5,0,0,1-1-1.7,4.1,4.1,0,0,1,.5-1.9,9.6,9.6,0,0,0,.9-2A2.1,2.1,0,0,0,40.6,55c-.4-.1-.4-.3-.4-.3a7.8,7.8,0,0,0-1.9-.2c-.4.1-.4.8-.9,1.1a5.6,5.6,0,0,1-2.3.5l-4.7.6v2c0,.9-1.9,2.5-2.4,3.2s-1.2.8-2.3,1.1a4,4,0,0,1-2.4.1c-1.1-.1-1,.4-1.8.8a32.4,32.4,0,0,1-3.3,1.3c-.9.3-1.8-2.2-1.8-2.7s-1.3-.2-1.3-.2a6.6,6.6,0,0,1-1.6,1.3,3.1,3.1,0,0,1-2.2.4c-1.2-.2-.9-.6-.9-.6a6.4,6.4,0,0,1-1.3-1,4.7,4.7,0,0,1-.6-2c-.1-.7-.7-.6-1.1-1.2a2.3,2.3,0,0,1-.5-1.4c-.1-.8-.4-.8-.8-.9s-.9-1.3-1.8-2.5a8.3,8.3,0,0,0-2.2-2.1,24.9,24.9,0,0,1-1-3.2c.1-.4-1.1-.7-1.1-.7S1.4,45.2,2,45s1,.4,1.4-1.6-.3-1.6.4-2.2,1.3.2,1.7-1.2a5.3,5.3,0,0,0,.3-2.2c0-.7-1.8-.7.6-1.2s2.5.3,3-.7a4.5,4.5,0,0,0,.7-1.8c.3-1,.8-.7,1.4-1.7s.3-1,.6-1.9.4-4.1,1-4.4.7.5,1-.5,0-1.2.8-2.2.9-.9,1.6-1.4.9-.4,1.1-1-.8-.5.9-1.8,1.6-.7,1.9-1.3a11.5,11.5,0,0,0,.6-1.7c.1-.6,0-.6.1-1.4s0-.3.1-1.8a18.6,18.6,0,0,1,.6-3.1c.1-.7.2-1-.4-.9s-.8,1.1-.9,0a6.7,6.7,0,0,0-.6-2.1l-.7-1.8a1.1,1.1,0,0,1,0-1.2A18.7,18.7,0,0,0,20.4,2a2,2,0,0,1,1-.5c.6-.1.7.1,1.2-.5s-.5-.8.8-.9h1.5l-.8,1.1v1a3.5,3.5,0,0,1,1.6,2.3c.3,1.5.5,1.6.4,2.4s-.2,3.7-.2,3.7a2.3,2.3,0,0,0,.7,1.6,3.2,3.2,0,0,0,2,1,6.1,6.1,0,0,0,2.7,0,2.5,2.5,0,0,1,1.9,0,2.1,2.1,0,0,0,1.9-.2,7.5,7.5,0,0,1,1.8-.7h2.3c1.3,0,1.7.3,2.1-.2s.4-.1,1-.7a7.3,7.3,0,0,1,2.6-1.1l1.3-.2c.8-.1,1.8-.7,2.8-.3a6.6,6.6,0,0,0,2.2.6C52,10.4,52.4,10.6,52.9,10.2Z"/></g></g></svg>