<svg xmlns="http://www.w3.org/2000/svg" viewBox="0 0 103.2 113.7"><defs><style>.cls-1{fill:#231f20;}</style></defs><g id="Layer_2" data-name="Layer 2"><g id="Layer_1-2" data-name="Layer 1"><path id="north_africa" data-name="north africa" class="cls-1" d="M71.7,14.4a7.2,7.2,0,0,1-1.4-2.2c-.4-.7-.6-2.1-1.9-2.2s-1.1,1.1-1.5-.8-.7-3.3-1.2-3.7a11.4,11.4,0,0,1-2.5-1.9,3.8,3.8,0,0,1-1.3-2.2L59.8,0,53.7.2a4.7,4.7,0,0,0-2.5.7c-.8.5-.4.7-1.8,1.3l-4.2,2a18.5,18.5,0,0,1-3.5.4,2.4,2.4,0,0,1-1.2,1.8c-1.1.7-2.6,1.6-3.8,1.5s-1.4-.6-2.4-.4S31.2,9.1,30.5,9a8.1,8.1,0,0,0-2.8.8c-1.2.3.1.4-2.3.4H21c-.7-.1-1.3.3-2,.4s-1.5.3-1.2.4A2.9,2.9,0,0,0,15.6,12l.4,4.6-3.2,3.5s-.7,2.8-1.4,5a32.9,32.9,0,0,1-1.8,4.2L8.2,33.2s-1.5.8-1.4,1.4.4,1.9-.1,2.3-1.2,0-1.8,1.2A11,11,0,0,0,3.8,41c0,.5.6,1-.3,2s-1.7,1.1-2,3.2-1.2,4-.2,5.3a5.8,5.8,0,0,1,1.6,3.6c0,1.4-.4,1.3-.2,3.3s.3,1.8.3,3.2a42.9,42.9,0,0,1-.3,4.9c-.3,1.6-.8,2.1-1.2,4s-2.6,2.6-.8,4.3,1.5,3.1,2,4.4,5,1,5,3.9,3.3,3.3,3.6,4.8-.6,3.6,2.4,4.9,2.7,3.1,3.3,3.6,3.4.8,4,1.6a29.9,29.9,0,0,0,2.2,2.6,3.6,3.6,0,0,0,3.3,1.5c2.2-.1,2.4,0,5.8-.3l6.6-.7c.9-.1,2.8.5,4.1-.1s1.2-1.8,2.9-2.1,2.4,0,3.5-.3,5.5-.2,6.1.3,1.4,0,2.2,1.6-1.5,4.1,3.2,3.9,7.5-1,8.1.1-1.5,2.7-1.1,4.3.9,1.8.4,2.6l.6.3c.5,1,.5,1.6,1.2,1.9s2.6-1.2,2.6-1.2a19.8,19.8,0,0,1,3.2.3c1.6.4,1.8-.3,3.4-.7a1.6,1.6,0,0,1,1.9,1.3,2.5,2.5,0,0,0,2.7,0c1.4-.9,1-1.3.5-2.7s.4-1.7.7-5.6-1.2-2-1.2-2a7.6,7.6,0,0,1-.4-3.7c.2-2.5.9-.7,1.4-1.8s1.3-1,2.2-1.7,2.1-.7,3-1.3,1.4-1.6,2.8-2.1,2.8-1.2,5.1-2.3,1.8-2.1,1.8-3,2.3-3.3,2.3-3.3a11,11,0,0,0-1.4-3.4c-.9-1.2-.4-2.7-.4-3.5a3.6,3.6,0,0,1,.9-2.2c.5-.7.2-1,.2-1l.9-1.8a9.2,9.2,0,0,0,.5-2.6c0-1.3-.7-.8-1.4-.9s-.2-.4.9-.9.7-1.8.8-2.8a33.2,33.2,0,0,0-.5-6.4c-.2-.9-3.9.2-4.8-.2a3.9,3.9,0,0,1-1.4-1s-.7-2.2-.9-3.2-2.6.2-3.5,0-.2-1.4-.5-2.7-1.8-.7-2.7-.7a7.1,7.1,0,0,1-3.5-1.6c-1.2-.9-1.6.4-3,.6s-1.4-.2-2-1.1-2.3.5-3.8.3-1.3-.8-2.2-2.2-1.7-.4-3.7-.9-1.2-.7-1.4-2.2a1.2,1.2,0,0,0-1.4-1.2s-.2-1.6-.4-2.8a38.4,38.4,0,0,1,.2-3.9c0-.7-.3-3.4-1.6-3.9s-.3-1.8-.3-1.8a6.6,6.6,0,0,1-.4-2.6,2.9,2.9,0,0,1,2.3-2,1.8,1.8,0,0,0,1.4-1s-1.4-2.1-2.1-3.4,1.2-1,1.2-1l.9-1.1a7.6,7.6,0,0,1,2-1.4C72.6,16.4,71.7,14.4,71.7,14.4Z"/></g></g></svg>