<svg xmlns="http://www.w3.org/2000/svg" viewBox="0 0 58.7 71.7"><defs><style>.cls-1{fill:#231f20;}</style></defs><g id="Layer_2" data-name="Layer 2"><g id="Layer_1-2" data-name="Layer 1"><path id="quebec" class="cls-1" d="M1.2,46s.7-3.7,2-4.6,1.9-5.7,1.4-6.7-1.4-1.4-.7-3S4.2,27.4,6,28s3.5.3,3.9-.9-.2-1.3,0-2.3a2.1,2.1,0,0,1,1.8-1.6c.7-.2,1.2.3.7-2.1s0-1.5-.7-3.2-.2-.7-.9-2.3-1.3-4.1.5-4.3S11.1,9,12.4,8.5s3.5.2,3-1.9S12.2.2,14,0a11.7,11.7,0,0,1,4.2.7l6.3.4s-.6,2.4,1.2,2.6,2.2,1.4,2.8,1.8,1.6,1.2,1.4,1.7a2.8,2.8,0,0,0-.2,1.9c.2.9.8,2.1.3,2.4a2,2,0,0,0-.9,2,20.2,20.2,0,0,0,.5,2.5s1,1.4,2.3.7.8-1.1,2.5-1.8,1.6.8,2.6-.8a6.8,6.8,0,0,0,1.1-2.5c.3-.6,1.5-2.2,2.5-1.7s-.3,5,.8,6.6,2.5-.6,2.6.1a15.7,15.7,0,0,0,.4,2.3c.1.6-.8,1.1,0,2.1s.8,1.2.7,2a2.2,2.2,0,0,0,.4,1.4s1.4-1.3,2,.2.1,2.4,1.2,2.4,2.4,1.7,2.4,1.7l.5,2.7,2.9-2,2.7.8s-3.8,1.8-3,3.6,4.6-2.1,4.5.3-.5,5-1.4,5.1-2.4.9-2.6,1.5-1.8,1.7-3,1.9.7,1.3-1.7,1.6a15.2,15.2,0,0,1-3.6.3c-.5,0-.5.5-1.2,1.6s-.1,1.5-.7,2,2.2,0-1.6.9l-4.5,1.1s-.3.4-1.5.4a2.3,2.3,0,0,1-1.8-.6s-.2-.7-2-.7-3.4,1.7-3.4,1.7a2.3,2.3,0,0,1-1.5.7A5.3,5.3,0,0,0,25.9,53a1.5,1.5,0,0,0-1,1.9c.3,1.5,1.7,2.8,2.6,1.8s2.2-5,4.1-4.6S36,53.2,35.5,56s-.6,2.2-.3,3.6,1.3,2.1,1.2,3.4-1.3.9.1,2,2.9,2.9,3.4,1.2,1.1-2.7,1.7-2.5,2.4-.5,1.1,2-1,2.7-2.1,3.4-1-1.2-3,1.8c.1.3-1.8,1-2.3.8s-.8-1-1.1-2-1.5-.9-3.1-1S31,65,31.5,63s-3.1-4-4.1-4.2a3.2,3.2,0,0,0-2.7.6,10.8,10.8,0,0,1-1.9,1.3c-.3.2.4,4.1.4,4.1s-.2-.2-1.8.8S9.5,66.8,9.5,66.8s0-3.8-1-3.7-.9.7-1.6.2-.9-1.2-1.6-.5-.4,2.3-1.1,2.1-1.7-1.8-2.4-1.6S0,64.9,0,64.9.4,47.9,1.1,46Z"/></g></g></svg>