<svg xmlns="http://www.w3.org/2000/svg" viewBox="0 0 63.4 75"><defs><style>.cls-1{fill:#231f20;}</style></defs><g id="Layer_2" data-name="Layer 2"><g id="Layer_1-2" data-name="Layer 1"><path id="scandinavia" class="cls-1" d="M61.4,51.8a2.6,2.6,0,0,1-1.9-1.2c-.4-.8-1.3-1.7-1.9-1.4s-.4.4-1.6.4-1.9-1.8-2.9-1.2-.2,1-1.5,1.3a24.5,24.5,0,0,1-3.9.4c-1.2,0-1-.3-2.3,0s-2.4,1-2.9-.3-.6-.9-.6-2.1.7-2.1,1-3.3-.5-2.2.3-3.3,1.5-1.4,1.9-2a5.8,5.8,0,0,0,.9-2.3,7.6,7.6,0,0,0,.1-1.5,2.5,2.5,0,0,0-.9-2c-.5-.4-.3-.4-1.5-.5s-.7-.9-1.8.4-2.2,1.4-2.3,2.4.5,1.3-.1,2.6-.8,1.1-1,1.6.2,1.3-.3,1.8-.8.5-1.7,1-1.5.1-1.6,1.6-.4,1.1,0,2.1.6,1.1.8,1.9a4.7,4.7,0,0,1,.8,2.6,3.4,3.4,0,0,0,.4,2,7.5,7.5,0,0,1,.3,2.6,19.8,19.8,0,0,1-.8,3.3,6,6,0,0,1-1.4,2c-.6.6-.4.7-1.1,1.5a15.8,15.8,0,0,1-2.3,1.4c-.6.3-.7,1.6-.7,1.6v2.4s.6,1.6-.5,2.1a3.7,3.7,0,0,0-2.2,1.7c-.7,1.2,0,2-.8,2.8s-.7.9-2.2.7-1.7-.1-2.2-.7-1.1-1.8-1.9-1.9-.6.1-1.1-.1-.1-.8-.9-.8-1.1.5-1.1,0v-6l-1.9-2.8.6-1.7L16,59.7l-.9-.5s-1.4.5-1.5,1a3.7,3.7,0,0,1-.4,1.4c-.2.5-1.3,2-2.2,2.1l-2,.2s-.4,1-1.1.7-.5-.3-1.4-1.3a4.1,4.1,0,0,1-1.1-2.6c0-.5.2-.6-.4-1.1L3.7,58.4c-.6-.6-1.5-1.1-1.3-2.2A20.2,20.2,0,0,1,3,52.8a3.8,3.8,0,0,0-.4-2.2l-.5-.9c-.5-1.1,0-.9-.9-1.8s-1.5-1.2-1-2.7-.4-2.3,1-2.6,1.3,1.6,1.6-.9-.7-1.8.7-3.4,1.6-1.9,1.6-1.9.9,0,1.3,1.2.3,2.3,1,1.5.9-2,1.4-2.7l1.5-1.6s-1.6-2.6.3-2.5,2,.6,2.5-.1.3-.7,1.6-1.1,1.4-.2,1.6-1.2.7-1.1,1.4-1.8.7-1.1.9-2.5-.2-1.2,1.4-3.3,1.6-2,2.1-3.4a5.8,5.8,0,0,1,1.1-2.1c.5-.9,1.2-.6,1.7-1.3a3.2,3.2,0,0,0,.7-1.5l.9-1.6s-1.7-.7-.2-1.5a21.3,21.3,0,0,1,3.1-1.2,9.6,9.6,0,0,1,2.1-.3s1.1,1.6,1.3.4-.5-1.4.5-2.2,1.7-.7,2.1-.5.1.6.9.4,1.7.9,2-.4-1.2-2.2.5-2.9,2.6-.1,3.1-.6-.3-.8.8-1.3a11.4,11.4,0,0,1,2.5-.6c1-.4,1.1-1.5,1.7-1.6a1.9,1.9,0,0,1,1.7.5c.5.5-1,1,1.2.6s4.9-1.7,5.7-1,.1,1.6,1.2,1.6,2.1-.4,2.6,0,.5.6,1.3.9.9,4,.3,4.5.7,3.6,0,4.1-1.2,6.3-1.2,8.9,1.4,6.7,1,8.9a13.9,13.9,0,0,0,.7,5.1,3.2,3.2,0,0,1,.6,2.2,3.4,3.4,0,0,0,.9,2.5,1,1,0,0,1,.5.7,3.9,3.9,0,0,1-.2,1.7,2,2,0,0,0-.8,1.6c0,1,.2,1.4-.1,1.8a2.4,2.4,0,0,0-.7,1.6,11.2,11.2,0,0,0-.1,3.1C61.8,49.9,62.2,52.1,61.4,51.8Z"/></g></g></svg>