<svg xmlns="http://www.w3.org/2000/svg" viewBox="0 0 85 149.7"><defs><style>.cls-1{fill:#231f20;}</style></defs><g id="Layer_2" data-name="Layer 2"><g id="Layer_1-2" data-name="Layer 1"><path id="siberia" class="cls-1" d="M9.3,48.1c.7,1.8,1.2.8,2.3,0s.2-.6.4-2.1-.4-1.3-1-2-.4-.1-2-.1a9.8,9.8,0,0,0-2.3.3c-1.1.2-.7,0-2.6-.3S3,42.5,3,41.7a9.1,9.1,0,0,0-.5-2.1A3.2,3.2,0,0,1,1,38.2c-.5-1,0-1.1.1-1.6A8.7,8.7,0,0,0,1.2,34c-.1-1.5-.5-.5-1-1.3a.9.9,0,0,1,0-1.2l1-1,1.8.6,1.1.4,2.2.7,2.2,2.5c2,2.3,1,.3,2.5.4s1.1-.6,1.1-.6-2-1-2-1.5.5-1.3.5-1.9a6.9,6.9,0,0,0-.4-2.5c-.2-.5-1-.9-1.5-1.4a10.6,10.6,0,0,1-1.2-1.8s-.4-.8.5-3.3,1.1.9,1.1.9l.7.4,1.5,1.2a10.8,10.8,0,0,0,2-.5c.8-.2,1.9,1.8,1.9,1.8l2.8.2c.5,0,1.5-1.4,1.5-2.4s-2-.1-2-.1l-3-.6s-3.9-1.1-4.7-2.1a1,1,0,0,1,.2-1.5l2-2.5s1.3-1.4,2-1.4h3.2a13.8,13.8,0,0,0,1-3.8c.1-1.6,2.3-.5,2.3-.5a6,6,0,0,0,2-1c.3-.5,2.5-2,5.8-4S31.7,5.1,33.2,5a11.9,11.9,0,0,0,3.4-.4c.5-.2,2.1-1.4,2.6-1.6s3-1.5,3-.9a10.1,10.1,0,0,0,.5,2.5c.3.5,1.6-.6,3.3-1.9s1.1-1,1.8-2.1S49.3.2,50.5.4s.7,1.8.8,2.6,2,2.1,3.2,2.9,4.2-3.8,4.7-1.4,3.3,3.2,3.3,4-1.3,2.2-2.2,3a8.2,8.2,0,0,0-2.1,2.7c-.5,1.2,0,.8,0,1.8s-.7.2-1.9,1-1.1,1-2,2-1.3.5-2.2.9-.6,1.5-.9,2.3.5.8.5.8l1.9-1.3,3.6-2a17.2,17.2,0,0,0,3.6-3.2c1.4-1.5,3.3-.8,4.3-1a1.6,1.6,0,0,1,1.6.4,4.9,4.9,0,0,0,2.4-.5,14.1,14.1,0,0,1,4.6-1.3,5.9,5.9,0,0,1,3.1,1,34.3,34.3,0,0,0,3.3,2.4h1.4l.3,2.6a4.1,4.1,0,0,0,1,3.1c1.2,1.1,1.5.6,2,1.1s-.1,3.8-.2,4.5-.6.8-1.1,1.7-.2,1.3-.5,2.8-.9.9-1.3,2.4,0,1.4.5,2.4a7,7,0,0,1,.5,3.4c0,1.5-.2.6-.9.7a18.7,18.7,0,0,1-2.5.8c-1.2.1-2.6.6-3.2-.2s-1.3-.8-3.5-.6-.6,1-.9,2-1,.9-2.5,1.1-1,.4-1.1,2,1.7,2.7,2.7,3a3,3,0,0,1,1.7,1.3c.3.6,1.5.4,3,1.7s.2,1.7-.8,2.7.6,4.5,1.4,5,1.1,1.2,1.5,4.2,1.5,3.3,1.5,3.3.9.5,1,3.6a24.3,24.3,0,0,0,.9,5.7s-4.1,7.7-2.9,11.1,2.7,9.5.9,11.7-2.8,2.1-3.4.9.3-1.6-1.8-1.9-1.9.6-3.4,1-2.2,1.8-3.4.6,0-1.6-1.8-1-1,2.8-3.3,3.3-2-.3-2.9,1.2a22.9,22.9,0,0,0-1.7,2.8c-.3.7-.9.6-.3,2s2.2-.6,2,2.1a36,36,0,0,1-.4,4.5s-1.1-.8-1.1,1.1.8,1.6.4,3.2-1,.6-.6,2.4,1.7,1.9,1.7,1.9.3-1.9.9-.3-.1,2.4,1,2.9,0,.3,1.7.9c0,0,.6,0,1,.9s1.1,2.4.3,3.6a5.5,5.5,0,0,0-.7,5.4c1,2,2.6,2.3,2.4,3.5s-.4.9-.5,2.6.1,2.8-.2,3.5-.7,1.8-1.2,2-1.4-.3-1.9-.6-.2-2-1.1-1.3-1.1,1.6-1.8,1.2-.7-1.3-1.4-1.4-2.1.3-1.4-1,1.5-1.5,1.6-2.4.5-1.6,0-2.5-.8-1.9-1.5-2.1-.8-.6-1.7-1.5-1-1.9-1.7-1.7-1.9,2.1-3.5,1.8-2.2.4-2.7-.7-.8-1.4-1.4-1.6-.9-.2-.8-.9a3.2,3.2,0,0,0,.2-1.6c0-1.3.1-3.9-.8-5.3s-.9-1.3-.9-1.8.4-.7-.3-1-2-2.4-2.2-3.1-1.4-.8-1.7-.8-1.4-2.6-1.4-2.6-3.9.1-3.8-.8a12.9,12.9,0,0,1,.6-2.2c.1-.4.7-2.8.1-3.6a3.8,3.8,0,0,0-2.3-1.7c-.6-.1-1.7-.4-2.3.5s-1.2,1.5-1.5,1.4-.7-.1-.9-.9a6.1,6.1,0,0,1,.6-4.6c1.2-1.7.8.5,1.5-.3a5,5,0,0,0,1.1-3c0-.7-.5-1.5.5-2.5s1.8-.7,2.2-1.6,1.2-1.1.7-1.9-1.4-1.7-1.5-2.7.4-1-.3-1.7-1.3-1-1.3-1.8,1.3-.5-.1-1.3-1.9-.2-1.7-1.6,0-2.5.5-3.3-.4-3.2-.7-3.6-1-1-1.4-1.6-.3-1.8-.6-2a14.1,14.1,0,0,1-1.8-1.7,4.8,4.8,0,0,1-.6-1.4c-.3-.8-1.6-1.3-1.9-1.7s-2.7-1-2.8-1.4a4.6,4.6,0,0,1-.1-2.1,6.4,6.4,0,0,0,.2-2.8,13.9,13.9,0,0,1-.4-3.2c-.1-1.3-.6-1.9-1.6-1.9s-1.5.5-1.6,0-.6-2.1-.6-2.4A22.6,22.6,0,0,0,13.8,55l-1.1-1c-.9-.8-1.5-1.4-2.1-1.5s-1-.8-1.1-1.5A17.4,17.4,0,0,1,9.3,48.1Z"/></g></g></svg>