<svg xmlns="http://www.w3.org/2000/svg" viewBox="0 0 77.4 98.8"><defs><style>.cls-1{fill:#231f20;}</style></defs><g id="Layer_2" data-name="Layer 2"><g id="Layer_1-2" data-name="Layer 1"><path id="south_africa" data-name="south africa" class="cls-1" d="M1.5.5c.7.9,2.9-1,3.7-.4A19.8,19.8,0,0,0,8.7,2.5c.7.4,4.8-.2,5.8.5a1.7,1.7,0,0,0,1.8.4s-.6,4.2,0,4.9,2.1,1.3,3,.1,7.4-2,7.7-1-.6,3,.7,4,2.1,1.7,2,2.7-1.4,2-.9,3.4,1.9,1.9,3.4,1.8,1.3,1,2.6,1.2,6.1.3,6.6.6A9.5,9.5,0,0,1,43.5,23c.4.6,1.8,2.9,2.7,2s1.8-5.5.5-6-2.3-.5-2.3-2,.8-4.1,1.3-4.1a2.1,2.1,0,0,0,1.1-.6s3.9,0,2.6-1c.6-.3,2.4-.7,2.6.2s-.2,2.5.8,2.5,2.1,1.5,2.5,2.3,1.4.6,1.7,2.3.9,1.5.3,2.7-.8,1.2-.4,2.5,2,3.3,1.5,4.8-1.2,3.5-.5,4.8,2.8,3.2,3.4,2.7,1.5-1,1.5-2.2-.4-3.4,0-4.4,1.6.8.7-2.1-1.5-2.8-.3-4.3,2.1-1.3,3.3-1.7l1.9-.5s1.5-1.4,2.6-1.4,2.8-1.6,2.8-1.6l-.3-.5s2.9-.9,2.4.1.9,4.6.9,4.6a12.3,12.3,0,0,0,.4,1.8,14.9,14.9,0,0,1,.2,2.1c.1,1-.4,1.5-.5,2.3a6.9,6.9,0,0,0,.3,2.3,14,14,0,0,1-.9,3.9c-.3.6-1,.6-1.5,1.1S74.2,36.9,73,38s-.8,1.1-1.6,2.3-.1.5-1.2,2.2-.7.5-1.8.9-1.7,1.6-2.2,1.7-1.9,1.4-2.7,6,.8,5.5.4,6.4-2.7,4.3-3.1,5.3-.8.8-1.9,1.3-.7,2.5-.7,3.3A8.4,8.4,0,0,1,56,71.9c-1.3,1.2-.1,1.1.3,1.6s.4,1.1.1,2.8-1.6.7-2.4,1.2-3.1,3.3-2.8,4.3a1,1,0,0,0,1.2.8s-1.6,1.8-3.1,3.7.1,1.1.5,2.3-.9.3-1.6.3-.9.4-1.7,1-1.2.5-4.7,1.2-1.4,1.3-3.1,2.5-1.7,1.7-6.5,1.7-3.3.5-4.2.8a5.1,5.1,0,0,1-2.5.4,4,4,0,0,0-2.3.9A3.8,3.8,0,0,0,22,98.8a3.3,3.3,0,0,1-1-1.2c-.5-.8-1.6-.5-2.5-.6s-1-.2-1.8-1.4.2-1.5.2-2.1-.7-2.6-.7-3.6V87.1c0-1.2-.2-1.2-.2-2.6a4.1,4.1,0,0,0-.3-2.2c-.4-.8-1.4-1.7-1.7-3a15,15,0,0,1,0-3c0-1.2-1.2-.5-1.5-1a12.6,12.6,0,0,1-1.3-2.5c-.5-1.5.1-1.4.1-2.7V67.8c0-1-.8-1.4-1-2s-1.8-3.3-1.9-4.2a15.7,15.7,0,0,1-.2-2.5,8.2,8.2,0,0,1,.2-1.8c.1-.9-.6-1.4-.6-2s-3.3-3.8-3.3-3.8a1.7,1.7,0,0,1-.5-1c-.1-.7-.7-1.2-1.8-2.6s-.7-1.4-.5-2.4a9.3,9.3,0,0,0-.3-2.6A32.7,32.7,0,0,0,0,39.5a6.9,6.9,0,0,1,.2-2.2,12.6,12.6,0,0,0,.7-2.8c.1-1.5,0-1.1.1-2a3.9,3.9,0,0,1,.7-1.6c.3-.8,1-1.4,1-2.5a5.2,5.2,0,0,1,1-2.6,21.8,21.8,0,0,1,1.5-2.2c.7-1.1-.4-.7-.3-1.7a9.4,9.4,0,0,0-.2-2.5c-.2-.8-2-3.1-2.5-4.5s1.7-2.8,3.5-5.5h0C7.7,6.4,1.5,1.7,1.5.5Z"/></g></g></svg>