<svg xmlns="http://www.w3.org/2000/svg" viewBox="0 0 105.1 160.5"><defs><style>.cls-1{fill:#231f20;}</style></defs><g id="Layer_2" data-name="Layer 2"><g id="Layer_1-2" data-name="Layer 1"><path id="ukraine" class="cls-1" d="M18.6,1.2A10,10,0,0,1,16.5.8s.9,4,.3,4.5.7,3.6,0,4.1-1.2,6.3-1.2,8.9,1.4,6.8,1,8.9a13.9,13.9,0,0,0,.7,5.1,3.3,3.3,0,0,1,.6,2.3,3.7,3.7,0,0,0,.9,2.5.7.7,0,0,1,.5.6,3.9,3.9,0,0,1-.2,1.7,2.1,2.1,0,0,0-.8,1.7c0,.9.2,1.3-.1,1.7a2.4,2.4,0,0,0-.7,1.6,8,8,0,0,0,0,3.1c.2.6.6,2.7-.2,2.4s1,.4,1.5.8-1.2,1.1-2,1.4a9.1,9.1,0,0,1-2.9.1c-1.3-.1-.9-.4-1.9-.3s-3.1.8-4.2.5a2.9,2.9,0,0,0-2.5.4c-.8.5-.3,1.5-.3,2.6s.8.4.9,1.7.4,1,.7,1.7,1,.1,1,.1,2.2,1.8,1.9,2.9.5,1.9.5,2.9-1.1.2-2.7.1-.7-.9-1.3-2.6-.5-.6-1.5-1-1,.2-1.2,1.4a3,3,0,0,1-1.3,2c-.9.7-.1,1.3-.4,2.5S1,68.1.3,68.9s.2,1.4.6,2.7a4.6,4.6,0,0,0,.9,1.7c.5.5.3,1,.3,1.8s-.5,1.1-1,1.5H2.4s1.1.9,1.1,1.2a7.9,7.9,0,0,0,1.2,1.3,12.8,12.8,0,0,0,3.4,1.4,9.9,9.9,0,0,0,2.4-.7c.5,0-.1.9-.1,1.2a24.9,24.9,0,0,0,1,3.9c.3.6.4,8.1.4,9.4a5.3,5.3,0,0,0,1.8,3.1,2.2,2.2,0,0,1,.6,1.4c0,.3-.8,1.3-.9,1.8a9.1,9.1,0,0,1,.1,1.7c-.1.6-.5.8-1,1.3s-.4,1.4-.7,2-.8.7-1.4.9-2.3,3.6-2.5,4a5.1,5.1,0,0,1-2.5,1c-.6,0-2.1.5-2.3,1a5.4,5.4,0,0,0-.2,1.5l2.3,2.1c.3,0,.5-.8.8-1.1s1.2-.5,1.2-.5a6.3,6.3,0,0,1,2.3.4c.7.4.2.7.3,2.1a3.6,3.6,0,0,0,.3,1.6c.1.7.5.4,1.6.7l1.6.3c.9.2.7.8,1.1,1.7s.5,1.7,1,2.5a3.1,3.1,0,0,1,.4,1.5c0,.3-.3,1.5-.4,2.2s-.3.8-.5,1.1a7.5,7.5,0,0,0,0,1.5c0,.4.4.8.8,1.2a1.9,1.9,0,0,1,.4,1.5c0,.7-.6,1.8-.6,2.4s.9,1.1.8,1.6,2.2,2.3,2.2,2.3l1-.8a3.1,3.1,0,0,0,1.7-.8c.8-.8.5-1.2.5-1.2a10.2,10.2,0,0,1,.7-2.8c.3-.5.8-.3,2.5-.7s1,0,1.7,0,1.3.5,2,.8.6.7.9,1.7.5,1.7.6,2.5a4.5,4.5,0,0,0,.5,1.9c.4.9.8.8,1.8,1.4s.3.5,1.8,1.2.8-1.1,1.3-2a2.4,2.4,0,0,1,1.2-1.1,5.6,5.6,0,0,0,1.5-1c.7-.5.4-.5.8-1.4s-.1-1.2-.4-1.7-.7.1-1.4.1-1.3-.7-2-1.5-.1-1-.1-1a11.5,11.5,0,0,1,1.8-1.6,3.7,3.7,0,0,1,1.5-.8,9.5,9.5,0,0,0,1.8-.5l2.4-.6a7.4,7.4,0,0,1,2.1,0,3.8,3.8,0,0,0,1.7-.2,2.9,2.9,0,0,1,1-.9c.6-.4.8-.1,1.2.4s-.2,1.2-.2,1.2l-1.5,1.5c-.9.9-1,.4-2.7.6s-.5.3-.6,1.2a4,4,0,0,1-.7,1.6l-.5,1.2.8.5a12.6,12.6,0,0,1,.7,1.8c.2,1,.7.4,1.3.6s-.1,1-.1,1.8,1.1,1.3,1.8,2,.3.8,1,2,.5-.4,1-.7a5.4,5.4,0,0,1,1.8-.3c1.2-.2,1.3.1,1.3.1l-.6,1.5a14.2,14.2,0,0,1,1.6,1.4c.9.8.2,1.6,1.4,1.6s.7.5,1.2.9,1,1,1.9,1.7.7.5,1.5.6.4.2.7,3,.8.3.8.3a12,12,0,0,1-.6,1.2,17.9,17.9,0,0,1-1.4,1.3c-.5.5-1.1,1-1.1,1.5s.6.5,2,1.5,1.3-.5,1.3-.5a4.4,4.4,0,0,1,2.3-.3c1.6.2,1.4-.3,1.4-.3a2.8,2.8,0,0,1,1.7-1l1.8-.2c.8-.1.8-.5,1.5-1s1.2-.1,1.8-.2l1.9-.3c2.1-.3.3-.3.4-1.2a1,1,0,0,1,1-.9,1.5,1.5,0,0,0,1.2-.4c.5-.5.8-.7.8-1.3a4.4,4.4,0,0,0-.6-1.7s-.9-.6-.9-1.3a2.2,2.2,0,0,1,.4-1.5,13.1,13.1,0,0,0,0-2.9,18.6,18.6,0,0,1,.1-2.6c.1-1,.7-.5,1.5-1s-.3-1.8-.3-1.8a5.4,5.4,0,0,1-1.6-.4,2.8,2.8,0,0,1-2.4-1.8c-.7-1.5-.3-1.2-.5-1.8s-.7-.9-.5-2.4a3.9,3.9,0,0,0-.9-2.9l-1.1-.4a1.7,1.7,0,0,1-.9-1c-.2-.7.2-.9.4-2a3.9,3.9,0,0,0-.6-2.1l-1.2,1.1a17.5,17.5,0,0,0,1.9-3.7c.2-.9,0-1.1.4-1.8s.7-.5,1.8-.9a2.5,2.5,0,0,0,1.4-1,7.3,7.3,0,0,0,.3-2.9c-.1-1.4-.3-1.9-.3-3.2s-1.4-.8-1.4-.8l-1.1-1.5a2.9,2.9,0,0,1-1.6-1.2c-.5-.9,0-1.4.2-2.5a1.3,1.3,0,0,0-.5-1.4s-.9-2.1-1.3-3.2a11.2,11.2,0,0,1-.3-2.4,2.4,2.4,0,0,1,.7-2.2,5.3,5.3,0,0,1,2.3-2.1c1-.3-.4-1.6-.4-1.6s1.3-3.7,2-3.7l3.3-.2c2.7-.1,1.4-.8,2-1.5s1.7-.6,2.4-.8h1.5a21.3,21.3,0,0,0,3.1-.7A15,15,0,0,1,86,85.1l1.4-.9,1.3,1.2,1.4.2a18.9,18.9,0,0,0,2.5.9,5,5,0,0,0,2.1.2c.9-.2,1.1-.6,1.8-2a8.1,8.1,0,0,0,1-3c.2-1.2,3.4-1.2,4.3-1.6s1-.7,2.1-1.2,0-1.6,0-3.4-.5-1.9-.7-3.2a18.4,18.4,0,0,0-.7-2.4c-.2-.9,1.6-1.8,2.3-3.2s0-2-.2-3.2-1.8-1.2-1.8-1.2l-3.2-2.2-1.4-.7a25.2,25.2,0,0,1,0-3c.2-1.6,1.1-2.1,1.8-3.3a7.4,7.4,0,0,0,.7-3.6c0-.8-1.8-1.2-1.8-1.2V39.5A12.4,12.4,0,0,0,97.7,35c-.5-.8.5-2.4.5-2.4a15.1,15.1,0,0,1-1-2.9c-.2-.8,1-4.7,1-4.7l2-4.8,1.2-2.1s0-3.2.5-3.9.4-4.1.4-4.1-.7-6.7-1.4-7.1a8.1,8.1,0,0,1-1.7-1.9c-.7-.9-2-.1-3-.1l-3-.3A21.8,21.8,0,0,1,90.5,0,2.5,2.5,0,0,0,88,1.6c-.4.7-.7,1-1.8,2.6s-1.1.3-2.5,1-1.2-.9-2.2-1.3-2.2.4-3.2.4S77.3,4,76,3.1s-1.4-.5-3.2,1.3-1.7,1.1-3,.9a1.9,1.9,0,0,0-2,1.2,31.2,31.2,0,0,1-3,2.6c-.6.4-3.1,1.1-4,2.3s-.1.8-1.8,1.7-1.3.1-1.3-1,0-.4.6-1.8,0-.6-.6-.9A3.9,3.9,0,0,1,56,7.7a9.1,9.1,0,0,0-1.3-1.9c-.8-.7-2.2.8-3.4.6a4.2,4.2,0,0,0-2,.1c-.9.1-.1.8.1,1.6s.5.7,1.1,1.4-.1,1.9-.1,2.6-.2.8.1,1.6.7.6,1.6,1.2.5,1,.3,1.8-.9-.1-1.9-.2-1.6,1.3-2.6,1.8-1.4.4-2.3.5-.8.6-2.4,2.1-1.7.6-2.9.6-.7-.6-2-1.5-.6.1-1.6.5.1,1,.7,2,.8,1.7,1,2,0,.5-1.4,2-1.1.1-2.1.1H33c-1.1.1-.7-.4-.7-1.1V23.5c0-1.5-.5-1.2-.8-1.5s0-.8-.2-1.3a2.1,2.1,0,0,0-1.3-1c-.4,0-1.7,0-1.9-.3a3.5,3.5,0,0,0-1.6-1.2,14.1,14.1,0,0,1-2.1-1.6c-.3-.4,0-.8.1-1.3s1.7-1,3-.9a48.2,48.2,0,0,0,6.4.6H38a40.7,40.7,0,0,0,4.2-.7,8.8,8.8,0,0,0,3.2-1.7c.5-.6.2-.8.1-2a3.2,3.2,0,0,0-1.3-2.3,17.2,17.2,0,0,0-4-3.3c-3.4-2.2-3.2-.7-4.5-.6s-1.2-.6-2.2-.8a21.8,21.8,0,0,0-4.7-.2c-1.6,0-1.7.3-3-.1s-.8-.8-1.9-.9-1.4.2-2.4-.2-1.2-.8-1.9-1.1S19.8,1.3,18.6,1.2Z"/></g></g></svg>