<svg xmlns="http://www.w3.org/2000/svg" viewBox="0 0 87.1 46.9"><defs><style>.cls-1{fill:#231f20;}</style></defs><g id="Layer_2" data-name="Layer 2"><g id="Layer_1-2" data-name="Layer 1"><path id="venezuela" class="cls-1" d="M.1,34c1.9-1.2,1.5-3.8,1.5-4.5V26.4a3.5,3.5,0,0,1,1-3A24.6,24.6,0,0,0,4.4,21l1.2-1.1v-2l.8-2.3A11.3,11.3,0,0,0,7,14a13.1,13.1,0,0,0-.3-2.5L7,9.9,10.1,9s.4.4,1.4,0a9.4,9.4,0,0,0,2-1.2l2.2-1.3a19.9,19.9,0,0,0,2-1.5A8.9,8.9,0,0,1,20,3.9a6.1,6.1,0,0,1,1.5-.3A19.1,19.1,0,0,0,24.2,3a2.5,2.5,0,0,1,.9-1.1A13,13,0,0,1,27,.6L31,0a3.9,3.9,0,0,1,1.4,2.1c.1,1.3-.4,2,.6,1.9a10.2,10.2,0,0,0,2.5-.6c.5-.3.2-1.4,1.5-.5S38.4,4,38.9,4a10.1,10.1,0,0,0,1.8-.4l5.5,1.9,1.9-.4,3.8-.3a4.8,4.8,0,0,1,1.8.8c.5.5,3.7,2.4,4.7,3.9s2.5,2,2.7,2.6a2.5,2.5,0,0,0,1.8,1.3c.5,0,.5,1,1.1,1.1h2a3.5,3.5,0,0,0,.6,1.2c.5.6,1.6-.7,1.9.7s-.1,2.1.6,2.1a2.9,2.9,0,0,0,1.5-.5l1.3-.5s0-1,1,0,1.7.8,2.6,1-.4.9,1.7,1.4a33.7,33.7,0,0,0,4.7.8c.5,0,.5-2,2.2-.4a30.7,30.7,0,0,0,3,2.4s-4.3,3.5-4.8,4.6-.9,3.3-2.2,3.5-8.6.6-8.6.6.3,2.1-.7,2.1l-11.5-.4L57.9,29s-1.3.9-1.5-.9-.1-4.6-.1-4.6A36.2,36.2,0,0,1,52,25.4c-1.6.6-3,3.2-4.4,2.7s-2.1-2.3-2.5-.9.2,5.7-.8,6S42.8,33,42,34s-3.3,1.3-4,.7a7.8,7.8,0,0,0-2.1-1.6c-.8-.2-1.2-.7-2.1-.8s-1-.5-1.7.3-2.3,2.1-2.5,2.8-1.7,3.3-1.3,4.3,1.7.7,1.7,2.4-.5,2.7-1.5,3-5.8,1.8-5.8,1.8a12.3,12.3,0,0,0-1.3-2.6,4.8,4.8,0,0,0-2.3-1c-.7-.2-1.8-1.4-2.7-1.3s-3.2.1-3.8-.7a4.3,4.3,0,0,0-3.3-1.5c-1.6-.1-2.3,1-3.3-.7s-3-3.9-3.6-4S-.6,34.7.1,34Z"/></g></g></svg>