<svg xmlns="http://www.w3.org/2000/svg" viewBox="0 0 78.4 93.1"><defs><style>.cls-1{opacity:100;}.cls-2{fill:red;}</style></defs><g id="Layer_2" data-name="Layer 2"><g id="Layer_1-2" data-name="Layer 1"><g id="layer4" class="cls-1"><path id="western_australia" data-name="western australia" class="cls-2" d="M78,93.1l.2-.3s0-5.7.2-7.1-.4-1.2-1.1-2.3.9-42.2.7-43.1-29.4.3-29.4.3L48.1,2.9,46,1.7,43.5.1C42.7-.5,42,2,41.3,2.4L38.5,4l-.9,3c-.3,1.2-1.9.1-3.8.9s-.2.7-.7,2.4-.5.2-2.1.2-.7.7-1.7,2.1-1.2.4-2.6,1.6-.4,1.3-1.3,3-1,.9-2,1.6a41,41,0,0,0-3.9,3.5c-1,1.1-1.5.6-3.6.4s-.9,0-2.5.2-1.2,1.2-2.2,2.1a20.2,20.2,0,0,0-2.8,2.5c-1.2,1.2-.5.5-2.4.7s-1.1.2-3,1.4-.2,1.6-.3,3S2.1,34,1.6,35.3s0,1.5.5,3,1.6.5,1.6.5a8.5,8.5,0,0,0,0,2.8c.4.7-.2,0-1.7,0s-.7.5-.7,1.8v1.2s-.6.2-1.1,1.3,0,.8.2,2.1a9.3,9.3,0,0,0,.9,3c.5,1.2,1,.9,1.9,2.8s.3,2.1.3,3.9a23.7,23.7,0,0,0,.2,3.5c.2,2.3,1.2,1.6,1.2,1.6l1.9,1.4c.7.6.7,1.1,1.1,2.9s-.5,1.4-.9,2.4,0,.8-.2,2.9S6,73.6,5.3,74.5a5.5,5.5,0,0,0-1.1,2.3c-.5,1.4,0,1.1.9,1.8s1.9,1.2,3,2.1c2.4,2.7,4.9,2,8,.3,1.5-.8.8-1,2-1.6l1.6-.7A7.9,7.9,0,0,0,22,76.8c1-1.1.3-.2,1.5-.9A13.7,13.7,0,0,1,26.8,74c1.9-.7,2.5-.2,2.5-.2h1.5c1.6,0,.7.2,1.1.9s1.4.7,2.1.7a9.1,9.1,0,0,0,2.6-.5c.8-.4-.2-1.6-.2-2.3a4.4,4.4,0,0,1,.5-2.2,3.2,3.2,0,0,1,2.8-1.6,5.4,5.4,0,0,0,3.1-1c.7-.7,1.1-.4,2.5-.6s1.2-.5,2.2-1.5,1.1-.6,3-.6h2.9a9.7,9.7,0,0,1,3,.4c1.2.2,1.9,1.4,2.8,1.9s.3.7.3,2.1.2,1.6,1.6,4.1,2.1,2.5,2.1,2.5l2.2-3.4c1.1-1.6.9-.5,2.5-1s.5-1.1.8-3.4,1.1-.7,2.3-.5,0,2.3-.3,3.5-1.1,1.6-2,2.5-.8,1.1-1.9,2.3-.5,1-.3,2.5,1.9-1.3,2.6-2.3.7-.4,1.6-.2.1,2.3.1,3.3.2.9,1.1,1.5.8,1.6.3,3,0,1.4.2,2.4a14.8,14.8,0,0,0,2.8,4.5c.7.7.5.3,1.2.7S76.7,92.2,78,93.1Z"/></g></g></g></svg>