<svg xmlns="http://www.w3.org/2000/svg" viewBox="0 0 68.5 69"><defs><style>.cls-1{fill:#231f20;}</style></defs><g id="Layer_2" data-name="Layer 2"><g id="Layer_1-2" data-name="Layer 1"><path id="western_united_states" data-name="western united states" class="cls-1" d="M68.5.6c-.9.5.1,36.7-.4,37.2s-11.3.3-11.8.6a2.1,2.1,0,0,0-1,1.7c-.2.9,0,4-.2,5.4s-1.8,0-2.3.3-3.9,1.5-3.9,2.1-.8,4-.8,4.6-1,6.1-1,6.1a15.9,15.9,0,0,0-2.2.8c-.5.2-2.4.2-2.9.9s.1,2.5.1,2.5,1.8.2,1.4,1,.9,5.3.8,5.1-3.4,0-4.4.1a3.5,3.5,0,0,1-2.6-1.4,2.2,2.2,0,0,0-1.9-1.1c-1.1,0-3.4-2.7-4-3.2s-8.4,0-9.4,0-2.4-2.4-2.4-2.4l-3.8-2.1H8c-1.1.1-1.7-3.4-1.7-3.4-.5-2.1-.8-1.6-.8-3.5s-2.9-5.5-4.2-7.5S-.1,37.1.1,35.8s-.2-6.4.7-8.6.8-5.1,1.5-8S2.1,17,3.6,13.4,5,12.1,5.3,9,6.5,7.8,6.6,5.1,7.3,1.2,6.4,0s-.3.8.7,1S64.6,1.6,68.5.6Z"/></g></g></svg>