<svg xmlns="http://www.w3.org/2000/svg" viewBox="0 0 121.1 115.8"><defs>
<style>.cls-1{fill:#007bff;}</style></defs>
<g id="Layer_2" data-name="Layer 2">
<g id="Layer_1-2" data-name="Layer 1">
<path id="brazil" class="cls-1" d="M74.9,0s-4.3,3.6-4.8,4.6S69.2,8,67.9,8.2s-8.6.5-8.6.5.3,2.1-.7,2.1l-11.5-.3L45.7,6.2s-1.3.9-1.5-.9S44.1.8,44.1.8a36.2,36.2,0,0,1-4.3,1.9c-1.6.5-3,3.2-4.4,2.6S33.3,3,32.9,4.5s.2,5.6-.8,6-1.5-.3-2.3.8-3.3,1.3-4,.7a7.8,7.8,0,0,0-2.1-1.6,7.6,7.6,0,0,0-2.1-.8c-.9-.1-1-.5-1.7.3s-2.3,2.1-2.5,2.8-1.7,3.3-1.3,4.2,1.7.7,1.7,2.5-.5,2.7-1.5,2.9l-5.8,1.9s-4.1-.1-4.2.6.1,4.5-.9,5.2-3.7.4-3.9,1.4S-.6,33,.2,34.4,2.3,37,3.3,37s2.2.1,2.4,1.1,3.6,1.2,5,1.9,4.8-1.1,4.6,1-3.9,2.5-4.1,3.9-.4,4.4,2.3,4.2,5.3-2,7.2-2.3,3.7-.4,4.2-.9.9-1.8,1.9-1.9a5.6,5.6,0,0,1,4.1,2.3c.8,1.2.9,2.3,2.4,2.5s1,1,2.1,1.5,2.1,0,3.1.6,1,2.7,2.7,2.7,3.8-1.1,4.5.2,1.2,3,2,3.7.2,1.8.5,2.5,1.7.9,2.8,1.8,1.3,1.3,1.7,3.1,1.2,1.7,2,3.2,2,4.8,1.7,5.9-1,2.5.5,3.4a7.9,7.9,0,0,1,3,2.7c.9,1.4,1.5.9,2.1,1.4s1,2.4,1.4,5,3.3,3.6,3.4,5.4.2,3-.4,3.1a3.4,3.4,0,0,0-2,3c-.1,1.8-3.4,2.6-3.4,2.6s-2.1,1.5-1.8,2.5,5,.3,5,.9-.8,5.1-.3,5.3,3.8-1,4.3-.4-.7,4.5-.4,4.9,3.1,2.5,3.8,1.9.6-.6.8-1.3.3-.6.9-1.5.2-.9.5-1.6a4,4,0,0,1,1.1-1.9c.5-.5.8-.6,1-1.4s.1-1.1.3-2.4,1.6-1.3,3-1.8,1.2-2,1.3-3.3-.3-.4-.3-1.7-.2-1.9-.3-3.3.1-.5.8-1.1.6-3.4,2.1-6.5,12.5-4,13-4.1,3.4-1.2,3.7-1.7a10.5,10.5,0,0,1,2.7-2.1c1-.5.3-1.4.6-2.5s.5-.7,1.1-1,.5-1,1.1-1.9,0-1.7.4-2.5,1.5-1,2.4-1.3.4-1.7,1.1-2.4,0-3.4,0-5,0-1.8.8-2.8-.3-3-.3-3l.3-1.7a10.7,10.7,0,0,1-.2-3c.3-1,1.3-1.5,2.8-2.5s.5-3.3.5-3.3V45.4a11.8,11.8,0,0,1,4-1c1.7,0,1.7-2.5,3.2-4s.8-3,1-4.3c.3.5-.2-.7-.6-1.8s-.1-1.7-.4-3.4-1.2-2.5-2.2-3.5-2.4-.8-3.3-1-1.3-1.9-2.2-2.1-4.3-2.7-6.1-2.9-2-.1-2.9-1.1-1.4-.4-2-.4-1.6.5-2.4,0-1.1-.3-2.2-.3A2.8,2.8,0,0,1,94,18.4c-.5-.9-.5-1-1.2-1.4s-1.6-.1-2.4-.5a9.9,9.9,0,0,0-2.4-.9,17.7,17.7,0,0,1-2.3,0c-.8-.1-2.5-.5-3.2-.5l-3.3.4c-.9,0-2.4-1.5-3.7-2s1.2-.1,3-2.4-.7-3.6-1.2-4.5S76.7,5,75.9,2.4,74.9,0,74.9,0Z"/></g></g></svg>