<svg xmlns="http://www.w3.org/2000/svg" viewBox="0 0 60.3 81.7"><defs><style>.cls-1{fill:blue;}</style></defs><g id="Layer_2" data-name="Layer 2"><g id="Layer_1-2" data-name="Layer 1"><path id="central_america" data-name="central america" class="cls-1" d="M0,0S.6,3.5,1.8,3.4s7.7-.2,7.7-.2l3.9,2.2s1.4,2.4,2.4,2.4,8.7-.6,9.3,0S28,11,29.1,11A2.2,2.2,0,0,1,31,12.1a3.7,3.7,0,0,0,2.6,1.4c1-.1,4.3-.4,4.5,0s.1,2.7.1,3.6a28.1,28.1,0,0,1-1.1,4c-.3,1.7-1.9,2.8-1.9,3.7s2,2.1,2,2.1c-.5,2.8-.8,5.4.3,6.6v2.3l1.5,2.6s2.3,3.2,5.1,2.4,1.6-.3,3.9-1.4,1.7,1.2,2.9-1.3.4-2.7,1.8-3.2.6-1,2.3-.5.1.6,2.4.7,2.5-2.3,2.3.5a12.7,12.7,0,0,1-.8,3.8c-.2.7.4-.2-.5,1.5a4.4,4.4,0,0,1-2,2.1,1.7,1.7,0,0,0-1,1.8c0,1.1.3,2-.9,2.4s-2.2-.1-2,1.3-.1,1.7.9,2.4,1.7.7,2.4,1.9a4,4,0,0,1,.6,3c-.3.4-.1,2.1-.9,2.4s-1.7.2-1.7,1.8.7,2.9,0,3.2-2-.4-2.3.4-.4,1.6-.5,2.4-.7.9-.7,1.4V69c0,1.4-.9,2.2.4,2.5s1.8.6,2.4.3l1.9-.9c.5-.4,1.3-1.4,2-1.4a12.4,12.4,0,0,1,2.3.4,9.1,9.1,0,0,1,.6,2.5c-.1.6.4.5.2,2a15.6,15.6,0,0,1-.3,3.1A11.9,11.9,0,0,0,59,79c-.2.5,0,.5-.2,1.2s.1,1.9-.6,1.4-.2-.5-.6-1-.6-1.1-1.4-2.4-.6-.4-2.1-1.2-1.3-1.6-2.3-1.1-.7,1.3-1.8.6-1.5-.7-2.1-1.7a7.1,7.1,0,0,1-.9-1.7c-.4-.7-1.4-.2-1.4-1.6s.4-1.6,0-2.4l-1-1.7c-.2-.6-.4-.2-.4-1.4V63.4c0-.5-.4-2.5-.4-2.5l-.7-1.3-.6-.8c-.5-.8-.5-.4-.9-1.7s-1.2-2.7-1.5-3.7-1.6-2.3-5.7-3.8S30.5,47.8,27,47s-4.8-1.4-4.8-2.9,0-2-.8-2.5S19.6,41,20,40.1s1-1,1.6-2.1a4,4,0,0,0,.8-2.2c0-.9.4-1-1-1.7a26.1,26.1,0,0,1-4.2-3s1.7-.3-1.8.1-3.8,2.6-4.8,1.3.8-5.6-.5-6.3-1.1.3-1.9-1.3-.1-3-.4-4.4,0,.7-1-3.9.8-3.4-1.4-6S.4,8.2.1,6.1C.1,6.1.2.5,0,0Z"/></g></g></svg>