<svg xmlns="http://www.w3.org/2000/svg" viewBox="0 0 116 110.2"><defs><style>.cls-1{fill:#231f20;}</style></defs><g id="Layer_2" data-name="Layer 2"><g id="Layer_1-2" data-name="Layer 1"><path id="china" class="cls-1" d="M105.1,43.6c-1,.5-.2.5-.2,1.1s.9.3.9,1.1.3.8.8,1,.1.8.1,2.2.1.6,1.1.8.5.4.8,1.9,1,.5,1.5.5.5.3.8,1,0,.5-1.2,1.3,1.2.8,2.6,1.2.9,2,.6,3.4.7,1.1,1.5,2.6.2,2.4-.8,4.8.5,1.6,1.6,1.7.9,3.4.1,5,.1,1.5.1,3.6a16.3,16.3,0,0,1-.6,4.2c-.2,1.6-.4,1.3-1,2.3s-.2,2-.2,3.7-1.7,1.6-2.8,1.8-.6.2-.5,1.3-.5,1.4-1.5,2.4-.5.2-1.1,1.8-.1.9-1.5,2.2-1.4,1.8-1.4,1.8a16.7,16.7,0,0,1-.2,2.4c-.3,1.3-1.2.3-1.7.1s-1.3.7-1.7,1.4-1.9,1.1-3.1,2.4.1.2.5,1.1-.9,1.5-1.5,2-1.2,1.8-2.2,2.4-1.8-2.1-3.4-2.5c.3-.1-1.5-2.1-.9-2.5s-.9-1.6-.9-1.6,0-.9-.5-.9-.5-.1-.6-.6a.8.8,0,0,0-.7-.5s-.8-.1-.8-.7V99.4c0-.8-.4-1.6-.7-1.6H84.5s-.6-1.2-1-1.2-1.1-.3-1.4,0-1,.7-1.1,1.2-1.2,1.4-1.2,1.4.4.5-.4.7H76.2c-.4.1-1.1,1.6-1.1,2s.3,1.8-.7,1.9-2.7,0-3.3-.7-2-2.6-2.7-2.6-2.3-1.9-2.2-2.2.6-.5-.3-1-1.1-.3-1.4-1.2-.5-2.4-.9-2.7l-1.5-.9c-.8-.3-1.1-1.3-1.6-1.4s-.7-.1-1,.4l-1,1.7-1.3,1s-.4-.6-1,.3-2.6-7-3-7.3-9.7-.6-9.8-.3-1.2,1.8-1.6,1.8-1.7-1.3-1.7-1.3.4-3.6.1-4a7.4,7.4,0,0,0-3.3-1.2c-.3.1-.9,2.1-1.3,2.1s-3.7-1.8-4-3,.6-1.2-.8-1.3-.3,1.4-2.4.9-2.3-.7-2.6-1a3.4,3.4,0,0,0-2.3-1.5,7.2,7.2,0,0,1-3.4-1.5,4.6,4.6,0,0,0-.8-1.3c-.3-.4-.3-1.7-.8-2s-2.1.9-2.5,1-1.7-.5-1.4-1.3a3.9,3.9,0,0,1,1.1-2,3.4,3.4,0,0,0,1.4-1.5,12.9,12.9,0,0,0,.6-2,35.4,35.4,0,0,0-.7-5,30.7,30.7,0,0,1-.2-3.8s.1-1,.1-1.4a5.6,5.6,0,0,1,.2-1l-1.7.5H11.7c-.3,0-2-.9-2-1.2s-.3-2.1-.4-2.4-.3-1.4-.6-1.1l-1.3,2h0c-1.9,1-3,.7-3.1.5s.4-1.2.4-2.2a19.7,19.7,0,0,0-.9-3.7S3,48,2.4,47.8A4.7,4.7,0,0,1,.8,46.5,13.7,13.7,0,0,1,0,43.6c0-.9.4-4.5,1-4.6s2-1.1,2.9-1.1,2.3.1,2.7-.2,1.2-4.5,1.7-5.5.6-2,1.4-1.9a1.6,1.6,0,0,0,2-1.8c-.1-1.9-.3-5.5-1-6.7s-1.4-1.4-.9-2.5a2.5,2.5,0,0,1,1-1.4,11,11,0,0,1-.3-1.6c.6.4,1.1,0,2.3-.2s.6-1.1.7-1.5a3.1,3.1,0,0,0-.5-2c-.3-.7,0-.7.4-1.2s1.8-1.5,1.9-2.1.2-3.8.2-3.8a26.3,26.3,0,0,0,3.8-.7c.7-.4,0-4.6,0-4.6L21.9,0c-.2.7.1.8.7.9s.9.6,1.4,1.6,1.2.4,2.8.7,2.8-1.5,3.5-1.7.7.8,1.6,1.7,1,1.3,1.7,1.4,1.1,1.2,1.6,2.1a4.3,4.3,0,0,1,0,2.5c-.1.9-.9,1.1-1.6,2.4s.7.9,1.3,1,.7.9,1.4,1.4.9-.5,1.9-1.2.5,1,1,1.3,1.4.9,2,.7,1.1,1.9,1.7,2,1.2,6.5,1.2,6.5.9-.6,1.2.2a21.2,21.2,0,0,1,.6,2.1s1.4.8,1.4,1.2-.1,1.5.2,1.7l1.8.8.3,1.3s.2,1.2.7,1.3.8-.1,1.5.2a2.7,2.7,0,0,0,1.6.5c.6,0,.8-.1.8.4s-.1,1.4.3,1.5l1.2.2a5.4,5.4,0,0,0,.7.9c.3.3,1.4.4,1.5.8a5,5,0,0,1,.4,1.3c.1.4-.3,1.1,1.1,1.2s9-1,9-1l.5.9a3.1,3.1,0,0,0,1.2.7c.6.1,1.7-.3,2.7.1a6.6,6.6,0,0,0,2.2.8h1.3s.3,1.2.7,1.3a7.5,7.5,0,0,0,2.2-.6s.4-.6.9-.5.7-1.1,1.6-1.2h1.9c.3,0,2.5-1.1,2.5-.2a3.2,3.2,0,0,0,.7,2,3.4,3.4,0,0,0,2.1.8,8.3,8.3,0,0,0,2-.9c.6-.4.9-.7,1.7-.6a6.7,6.7,0,0,1,1.9.9l1.6.6a8.9,8.9,0,0,0,2.5.2l3.5.5C103.8,43.9,104.5,43.8,105.1,43.6Z"/></g></g></svg>