<svg xmlns="http://www.w3.org/2000/svg" viewBox="0 0 70.8 74"><defs><style>.cls-1{fill:#007bff;}</style></defs><g id="Layer_2" data-name="Layer 2"><g id="Layer_1-2" data-name="Layer 1"><path id="congo" class="cls-1" d="M58.3,60c-.6.3-.7-.6-1.1-3.4s-1.1-9.7-1-10.8,2.9,1,3.4.2.6-6.4.4-7.9,2.1-.8,3.6-1,1.7-2,2.4-3.2,1.2-1.1,1.8-1.4.5-1.5,1.3-2.5a8.4,8.4,0,0,0,1.7-4.1c0-1.4-1.8-2.8-4.1-2.9s-1.7,1-4.9.3a34.8,34.8,0,0,0-4.7-.9c-1-.3-.9-1.9-2-2.3s-2.5,2.2-2.5,2.2-1.3-.4-2.5-3.4-3-3.9-3.5-4-.6-3.6-.6-4.3-2.3-1.3-2.8-2.1-.9-1.9-1.7-2.1S40,6.1,39.6,4c0,0-.5-3.6-1.2-4s-2.3,2.4-2.3,3.2.5,2-1.8,3S30.6,8,29.2,8.5s-1.9,1.6-2.8,2.2-2.1.5-3,1.2-1.6.7-2.1,1.8S20,13,19.8,15.4a9.5,9.5,0,0,0,.4,3.7s1.6-1.9,1.2,2-1.2,4.2-.7,5.7.9,1.7-.5,2.6a2.5,2.5,0,0,1-2.7,0,1.5,1.5,0,0,0-1.9-1.2c-1.6.3-1.8,1-3.4.7a13.8,13.8,0,0,0-3.1-.4s-2,1.6-2.7,1.3-.7-.9-1.2-2l-.7-.2c-1-.3-1.2,2.2-1.2,2.2s1.4,1.6.9,2.1a32.2,32.2,0,0,0-1.7,2.9C1.8,35.6-.8,36.9.2,38s7.6,6.4,9,9.5l1.3,1.8c.6.8,2.8-1,3.6-.4a27.1,27.1,0,0,0,3.5,2.4c.7.3,4.9-.3,5.9.5a1.6,1.6,0,0,0,1.7.3s-.6,4.3,0,4.9,2.1,1.4,3,.1,7.4-2,7.8-1-.7,3,.6,4,2.1,1.8,2,2.8-1.4,2-.9,3.4,1.9,1.8,3.4,1.7,1.4,1,2.6,1.3,6.1.2,6.6.6a9.7,9.7,0,0,1,2.2,1.9c.3.6,1.7,2.8,2.6,2s1.9-5.5.5-6-2.3-.5-2.3-2,.8-4.2,1.3-4.2a2.1,2.1,0,0,0,1.1-.6S59.6,61,58.3,60Z"/></g></g></svg>