<svg xmlns="http://www.w3.org/2000/svg" viewBox="0 0 77.6 117.1"><defs><style>.cls-1{fill:#231f20;}</style></defs><g id="Layer_2" data-name="Layer 2"><g id="Layer_1-2" data-name="Layer 1"><path id="east_africa" data-name="east africa" class="cls-1" d="M1.9,32A12.1,12.1,0,0,0,.5,28.6C-.4,27.4.2,26,.2,25.1A3.2,3.2,0,0,1,1,23c.6-.7.2-1.1.2-1.1l.9-1.7a10.4,10.4,0,0,0,.5-2.7c0-1.2-.7-.7-1.4-.9s-.2-.3.9-.9.7-1.7.9-2.8-.4-5.5-.5-6.4,2-1.3,2.6-1S5.4,1,7,.5,36,1.6,35.9,0l.2.2c.4,1.2,1.3,1,1.3,1s2,1.6,2.2,2.3.5.3.5.9A22.5,22.5,0,0,0,41,8.8c.5,1.4.6.7,1.6,1.6s.3.7.3,2.7,1,1.5,2,3.1.1.9.6,2.3a24.5,24.5,0,0,0,1.1,3c.5,1,.8.7,1.4.7s.7.4.7,1.9,2.4,2,3.4,3.5,1.1,1,1.8,2,0,.8-.7,2.9.2,2.3.8,3.3,4,.8,4,.8a14.7,14.7,0,0,0,4.1-.8,7.5,7.5,0,0,0,1.5-1.3c.5-.4,4,0,6.5-.6s5.8-3,7.3-.4-3.8,13-6,18S62.9,61.5,59,65.2a34.9,34.9,0,0,0-6.5,8.9,7.7,7.7,0,0,1-1.8,1.8c-.5.2-1,.6-2,1.9s-1.6.7-3,1.7a2.7,2.7,0,0,0-1.1,2.7,8.2,8.2,0,0,1-.7,2.9c-.4.5.5,3,.5,3.9a29,29,0,0,1-.3,2.9s0,.3,1.4,1.1.5,5.2.5,5.2l.2.6s-1.6,1.6-2.7,1.6-2.6,1.4-2.6,1.4l-1.9.4c-1.3.4-2.3.3-3.4,1.8s-.5,1.4.4,4.2-.4,1.2-.8,2.2,0,3.1,0,4.4-.8,1.7-1.5,2.2-2.6-1.5-3.3-2.8,0-3.2.5-4.7-1.2-3.6-1.5-4.9a2.3,2.3,0,0,1,.3-2.5c.7-1.1.2-.9-.2-2.6s-1.4-1.6-1.8-2.4-1.5-2.2-2.5-2.2-.5-1.7-.7-2.5-2-.5-2.6-.3-.8-.6-1.2-3.3-1.1-9.8-1-10.9,2.9,1,3.4.2.6-6.3.4-7.9,2.1-.8,3.6-1,1.8-2,2.4-3.2,1.2-1.1,1.9-1.4.5-1.5,1.2-2.5A7.6,7.6,0,0,0,34.4,58c0-1.4-1.9-2.8-4.2-2.9s-1.7,1-4.8.3-3.8-.6-4.8-.9-.9-1.9-2-2.3-2.5,2.2-2.5,2.2S14.9,54,13.6,51s-3-3.9-3.5-4-.6-3.6-.6-4.2-2.3-1.4-2.8-2.2S5.9,38.8,5,38.5s-1.5-.3-1.9-2.4A25.5,25.5,0,0,0,1.9,32Z"/></g></g></svg>