<svg xmlns="http://www.w3.org/2000/svg" viewBox="0 0 37.4 62.2"><defs><style>.cls-1{fill:#231f20;}</style></defs><g id="Layer_2" data-name="Layer 2"><g id="Layer_1-2" data-name="Layer 1"><path id="great_britain" data-name="great britain" class="cls-1" d="M14.8,39.2c-.5-.6-.3-.5-.5-1.1s.1-.7.1-1.4a3.7,3.7,0,0,1,.4-1.6c.2-.8-1.4-1.5-1.4-2.2s-1.1-1.4-1.3-1.7a1.2,1.2,0,0,0-1.3-.7c-.6.1-.6.4-1.3.8s-.7-.2-1.3-.7-.4-.9-.4-1.9.1-.5.4-1,.5-.3,1-.9.3-.5.3-1.1a4.7,4.7,0,0,0-.3-1.9c-.3-.7-1-.1-1.2-.8s-.4-.6-.8-.8-.6-.1-1.6-.2-.3-.6-.4-1A7.3,7.3,0,0,1,5,19.5c-.2-1-.6-.3-1.2-.2s-.7.1-.9-.8a5.5,5.5,0,0,0-.1-.9c0-.5-.1-.5-.7-1.4s0-.5.7-1,.7-.8,1.3-1.3,0-.6-.2-1.3a1.6,1.6,0,0,0-.5-.9,5.9,5.9,0,0,1-1.7.2c-1.1,0-1-.2-1.5-.9s.1-.7.9-1.3.5-1,1.3-1.9a2.7,2.7,0,0,1,2.2-.9c1-.2.5-.7,1-1.8a17.9,17.9,0,0,1,.9-1.9A8.8,8.8,0,0,0,7.4.7c.2-1.2,1.7.7,4.7-.3s3,0,3,0,1.5,2.5-1,3.5-1,5-1,5h.7a4.4,4.4,0,0,1,1.6-.8c.7-.1.6.4,1.5.4s.7-.6,1.8-1.3.8.8.8,1.4,1.4,2.4,1.4,2.4l-.4.6a1.7,1.7,0,0,0-.6,1.4c0,.9-.3.7-.4,1.1s-.6.5-1,.7.1.5.3,1.3-.1.5-.6.6-.9.1-1.2.7-.1.7-.6,1.4-.5.4-1.6.8-.6.3-.4,1.7,1.2-.5,2.8-.7h2.3c1,0,.6.1,1.3.7s.2.8.5,1.4.7.2,1.2.9,0,1.2,0,2.1v.8s1,3.2,2.4,4,.9.8,1.5,1.3,1.8,3.4,2.2,3.9.3.8.5,2.4,0,1.2-.2,1.8l-.5,1.5a2.3,2.3,0,0,0,0,1.5c0,.4.5.6,2.3-.2s1.1-.7,2.2-1,.9-.5,1.9-.2.9.5,1.9,1.4.4,1.2.6,1.9-.1.6-.3,1.3l-.7,1.5c-.5.9-.2.7-.6,1.2s-.6.3-1.6.6-.9.9-1.5,1.4-.3.7-.4,1.1a2.4,2.4,0,0,0,.4,1.3,4.2,4.2,0,0,1,1.3.8c.4.4.2.8-.3,1.7s-.7.4-1.8.8-1.4,0-2.4-.1-1,.4-2.5.9-1.4.1-2.6,0a8.1,8.1,0,0,0-2.2,0c-1.1.1-1,.5-2.4,1.3s-.8,0-1.2-.4a7.6,7.6,0,0,1-1.3-1c-.7-.7-.7-.4-1.2-.2s-1.7,2.2-2.5,2.5-.8.2-2,.2H10.2c-.5.1-.9,1-1.6,1.8s-.5.2-1.9.4-1.2-.1-1.4-.4.2-.4.6-1A21.1,21.1,0,0,0,7.7,58c.5-.8.8-.4,2.1-1.2s.3-.3.9-1.7.7-1.3,2-1.7a1.3,1.3,0,0,0-.5-1.8c-1.1-.7-1.6-.4-2.8-.9s-2-.3-1.7-.9a12.9,12.9,0,0,0,1.7-2.6c.4-.6.2-1.3.7-1.3s.7.3,1.3-.1a1.2,1.2,0,0,0,.8-1.4,4.9,4.9,0,0,1,.1-1.7c.3-.8,1-1.4.4-1.9s-.1-.4-.9-.6a4.3,4.3,0,0,1-1.2-.8l.2-1,.2-1.7,1.4.6a4.3,4.3,0,0,1,2,2.1C14.7,39.9,15.1,39.9,14.8,39.2Z"/></g></g></svg>