<svg xmlns="http://www.w3.org/2000/svg" viewBox="0 0 95.9 95.7"><defs><style>.cls-1{fill:#231f20;}</style></defs><g id="Layer_2" data-name="Layer 2"><g id="Layer_1-2" data-name="Layer 1"><path id="greenland" class="cls-1" d="M52.5,72.7s.7,3.9-.2,5.5-1,.8-1.5,3.1-.1,3.3-1,4.7-.6-.9-1,2.7-.1,4.5-1,4.9.2,1.7-1.3,1.7-2,1-2.3-.3.2-2-1.3-2.2-2.4,1.7-2.6-.1.4-2.4-.9-2.9,1.3,3.7-2.9-1.2-3.3-8.3-3.3-8.3-1.3-1.3-1.3-2.2.9-3.6-.2-5.1-2.3-4.5-.9-5.4,2.7-.6,3.1-2.6.3-1.8.5-2.8.8-1.4-.2-1.5,0,.4-1.9-.1-1.6-1.3-2.1-1.4.3.8-1.3.1-2.9-1.1-1.1-1.7,2.9-.9,3.6-.6,1.1,1.6.9-.3-4.4-2.9-4.4-4.1V50.3a3.3,3.3,0,0,0-1.2-2.8c-1-1-.8-1-1-2.7a3.3,3.3,0,0,0-1.2-2.5c-.8-1-1,.4-1.6-1.3s-.6-2.2-1.9-2.2-1.1.8-2.1-.6-.7-1.6-2.4-1.5a4.3,4.3,0,0,0-3.1,1.4c-.2.5.4,1-1.2,1.1H9.3c-.9,0-1.8.4-1.8-.1a2.6,2.6,0,0,0-2.6-1.1c-1.6.4-2,1.5-2.5.2S.9,37.2.8,36.6s-1.6.1-.1-1.5.5-2,2.3-1.9,1.5.3,2.5-.2,2.4-.7,1-.8.5-.7-.8-1-2.9.5-2.9-.5-1.3-2.1.5-2.1,2.7.5,3.6-.4.9-.6,2.1-.5,2.5.8,2.9-.2,2.4-1.2.8-1.7-2.5-.3-2.2-1.1,1.4-.9,1-1.7-2.1-1.7.4-1.8,3.8,1,4.1-.4-1-2.5,1.3-2.5,4.6-1.1,4.7-1.8-.5-1.7,1.7-1.2,1.7,1.7,2.8.3-.1-1.8,2.2-1.3,2.5.8,3.3.2-.7-.9,1.4-.7,1.8,1,2.1-.8-1.3-1.7.8-2.2,2.2,0,3.2-1.3.2-1,2-1.4,2.2,0,1.3-1.4-2.5-2.1,0-2.4,3.9-.5,4.1-1.2-.1,1,1.4.6,1.2-.9,2.1-2S51,.3,51.9,1,51.8,2.1,54,1s.5-1.2,2.8-.8,2.1.1,4.7.3,1.3.5,2.8.8a6.9,6.9,0,0,0,3,.3c1.9,0,1.5-.4,2.6.4s.6.8,2.9.8,2.9-.6,3.2.8-.6,1.5,2.2,1.9,3.6-.2,2.1,1-4.6,1.2-3.8,2,.8.5-1.6,1-5.9,1-3,1.3,4.9-.8,5.6.4-1,1.4,2.3,1,1.9-1.1,4.5-.6,2.1,1.2,3-.4-1.5-2.5,1.4-1.9,2.2.7,4-.3,2-3,2.7-.7.6,2.9-1,3.7-1.5-.4-2,1.3-.4,2.3-1.6,3.3-1.9.1-1.6,1.9a5.8,5.8,0,0,1-.2,3.2c-.3,1.8-1.2,2.3-.1,3.3s1.1,0,1.9,1.5,1.1,1.5.4,3.2-.9.9-1.2,3-.5,3.4.4,2.8,1-2.4,1.1-.7.7,2.9-.8,3.5-1.4-.2-1.7,1,.7,1.7-.5,2.7-.1,2-1.3.8-2-2.8-3-1.7-2.4.1-1.3,1.5,1.9,1,2.1,1.5.2,1,.5,1.7.2,1.2,1.2,1,1.3.4,1.1,1.3a1.7,1.7,0,0,0,.4,2.2c.7.9,1,.9.3,1.3l-1.6,1c-.9.5-.7,1.2-1.2,1.4s-1.5.7-1.7-.5-.2-2.9-1-3.5-1.8-2.3-2.1-.8,0,2-.4,2.8-1.8-.3-.3,1l2.1,1.6s1.4.7.7,1.4.2.8-1.7,1.1-1-1.6-2.8.4a8.7,8.7,0,0,1-3,2.5l-.8-1s-.8-2.2-1-.8a8.6,8.6,0,0,1-1,3.4c-1,2.1-.5,2.6-1.7,2.7s-2-.7-2.6.2.3.6-.9,1.5-1.5,1-2.2,1,.4-2.2-1.1.1-.7,2.5-1.9,2.7a8.3,8.3,0,0,1-2.6.3H56.8a6.1,6.1,0,0,0-2.8.5A7.7,7.7,0,0,0,52.5,72Z"/></g></g></svg>