<svg xmlns="http://www.w3.org/2000/svg" viewBox="0 0 40.3 28.4"><defs><style>.cls-1{fill:#231f20;}</style></defs><g id="Layer_2" data-name="Layer 2"><g id="Layer_1-2" data-name="Layer 1"><path id="iceland" class="cls-1" d="M4,2.9s2,1.8,2.5.8-.6-2.2.9-1.1S8.8,3.4,9.3,4s3.5-1.5,2.4.5S9.8,7.2,10.5,7.1s-.1-.7.9.5.9,2.3,2.3,1.1l1.2-3.8s3.5.1,3.3,1.3-1.2,1.2.7.2.9-2.8,2.1-1.7S22.9,7,23.4,5.9s-1.1-2.4.4-2.2,1.6,1.7,2.5,0-.1-2.5,1.2-2.2.8.6,1.8-.3S30-.5,31,.4s1,1.2,1,1.2a21.6,21.6,0,0,1,2.5.5c.5.3-.2-1,.3,1s.6,2.6,1.2,2.4,1-1.1,1,.5-1.1,2.1.4,1.9,1.9-.4,2,.7a4.3,4.3,0,0,0,.8,2,6.1,6.1,0,0,1,0,1.4,1.6,1.6,0,0,0-.2,1.4c.3.6.5,1.6,0,1.8a5.1,5.1,0,0,1-2.1.9,1.9,1.9,0,0,0-1.6,1.4c-.3.6.7.2-.4,1.6s-.7,1.6-1.5,1.9a9.5,9.5,0,0,0-1.6.7l-3.4.5-.7-1.3s-.5-1.2-1-.7.1,1.5-.4,1.7-1.8-2.2-1.8-1.2a10.8,10.8,0,0,0,.7,2.8s.1,1.5-.5,1.7-.7,1-2.3,1.2-1.7.8-2.6,1-1.1,1.8-2.8.6-6.1-3.3-7-3a4,4,0,0,1-3,.1c-1.7-.5-2.5.6-2.8-.1s-.5.4-.2-1.4A4.5,4.5,0,0,1,7,21s.7-.4.5-1,0-.9-.7-1-.5-.5-.9-1.5-.7-.9-1.7-.6-1.3,1.3-2.4.1S.2,16,.7,15.2s.3-1,1.6-1.2,1.4,1,1.9-.5a7,7,0,0,1,1-2.1,2.4,2.4,0,0,0-1.4-.2c-.9.2-.6,1.2-1.6-.8S0,8.4,0,8.4s-.2,0,.4-1,1.3-1,1.9-2-.5-1.9.4-2.8,1.1-.2,1.1-.2Z"/></g></g></svg>