<svg xmlns="http://www.w3.org/2000/svg" viewBox="0 0 81.8 119.8"><defs><style>.cls-1{fill:#231f20;}</style></defs><g id="Layer_2" data-name="Layer 2"><g id="Layer_1-2" data-name="Layer 1"><path id="india" class="cls-1" d="M30,2.7c0,.8-1.1,2.5-2.3,3.8s-4.9.7-4.9.7a19.8,19.8,0,0,1-3.6-2.5c-1-1-1.9-.1-3.4,0s-1.4,3-1.9,3.9-1.9.7-2.7.6a20.9,20.9,0,0,0-3.6.7c-.5.1-.5,1.3-.5,2.1s-2.3,2.3-2.7,3.5S1.2,17.2,1.3,17,.9,19.3.9,19.3s0,1.6-.8,8.2c-.4,2.7,1.3,1.2,2,2.8A7.6,7.6,0,0,1,2.5,33a8.2,8.2,0,0,0,1.2,3.4c.8,1.2.3,1.2.3,2.5s1.6,2.1,2.5,3,.3,2.5-.3,3.7,1.2,1.4,1.4,3a39.1,39.1,0,0,0,1.2,5.6c.8.1,1.5-.9,2.2-1.1s3-.8,3.3.4.2,3.2.6,3.9S17.5,59,17.5,59h1.4c.7,0,1.1-.9,1.3.3s-.2,1.8.1,2.5,2.7.7,2.7.7,2.3,0,1.2,1.1-1.7,1.2-2.1,1.9-1.1.9-.2,1.3.7-.6,1.4.7.6.8,1.1,1.6-.4.8,1.2,1a5.7,5.7,0,0,0,2.2,0l.7-1.8a.9.9,0,0,1,1.6.2c.7,1.4,0,1.4-.2,3.2a47,47,0,0,0-.4,4.7c0,1.3-.7,2-.5,3.2a31.8,31.8,0,0,1,.4,3.4c0,1.5,1.4.9,1.4,2.1s-.2,1.6.5,2.3a6.1,6.1,0,0,1,1.5,3c0,.7.7,1,.7,2.2s-.1,2.4.6,2.7,1.9.6,1.9,2a5.9,5.9,0,0,0,1.1,2.9,6.8,6.8,0,0,1,.6,2c0,.7,1.2,1.1,1.2,1.9s1.4,0,2.3,4.7,1.4,1.8,2.8,5.9,2.1,5.1,3,5.1,2-.4,2.2-1.3,0-.8.8-1.2.7-.2.9-1.2-.7-1.3-.3-2-.6-2.1.8-2.1a3.6,3.6,0,0,0,2.5-1.2,3,3,0,0,1-.5-1.6c0-.9-.7,1.7,0-2.1s1.1-4.6.9-6.9-1.1-1.3,0-4.3,1.6-1.6,1.6-3.9,1-4.7,1.2-6.2.7-.3.7-1.9-.9-2.5.2-3.5,2.5-1.4,2.5-2.7V75.1a23.3,23.3,0,0,1,.3-2.7s2.3-.2,1.8-1.2a4,4,0,0,1,0-3.2c.3-.9,1.4-4.6,2.9-3.6s2,1,2,1,1.4-1.4,1.2-2a3.8,3.8,0,0,1,.5-1.7s.3-1.8.8-1.9l2.9-.3s-.4-3.8.5-3.9,1.4.1,1.6-.9a3.5,3.5,0,0,1,1.5-2.2c.6-.3.7-2.6.7-2.6l1.8-.7s.4-3.9,1.1-4.6a15.5,15.5,0,0,0,1.7-2.5s-2.5-7-2.9-7.4-9.8-.5-9.8-.2-1.2,1.8-1.6,1.8-1.7-1.4-1.7-1.4.4-3.6,0-3.9a8.7,8.7,0,0,0-3.2-1.3c-.3.2-.9,2.2-1.4,2.2s-3.7-1.8-4-3,.7-1.3-.7-1.3-.3,1.4-2.4.9-2.3-.8-2.6-1.1S50.2,26,49.2,26s-3.3-1.2-3.4-1.6a9.4,9.4,0,0,0-.9-1.2c-.3-.4-.3-1.7-.7-2.1s-2.1.9-2.5,1-1.7-.4-1.5-1.2.7-1.8,1.1-2a2.9,2.9,0,0,0,1.5-1.6,6.8,6.8,0,0,0,.5-2c.2-1.2-.5-4-.7-4.9s-.1-3.8-.1-3.8.1-1.1.1-1.4a5.6,5.6,0,0,1,.2-1l-1.7.5H37.4a5.5,5.5,0,0,1-2.1-1.2,10,10,0,0,0-.4-2.4c-.1-.3-.2-1.4-.5-1L33,2.1h.1C31.2,3.2,30.1,2.8,30,2.7Z"/></g></g></svg>