<svg xmlns="http://www.w3.org/2000/svg" viewBox="0 0 74.4 62.7"><defs><style>.cls-1{fill:#231f20;}</style></defs><g id="Layer_2" data-name="Layer 2"><g id="Layer_1-2" data-name="Layer 1"><path id="indonesia" class="cls-1" d="M36.3,59.4c.9,1.3.4,1.6,2.4,1.6s3.2-.4,4.3-.1.7.6,1.9.5,2.4-.9,3.4-1a6.1,6.1,0,0,1,3,0c.7.2,1.9,1.1,3.2,1.2s4.5.1,5,.3,2.2,1.3,2.9.5,1-.7,1.3-2,.2-2.2-.7-2.4-.2-.8-2.3-.9a9.4,9.4,0,0,1-3.4-.6A14,14,0,0,0,54.9,55a14.2,14.2,0,0,0-4.2-1.1l-5.5-.3c-1.4,0-1.7-.6-3.2.5s-2.7,1.6-3.6,2.3-.6.1-1,1.3S36.7,59.6,36.3,59.4Zm23.4-8.2c.5-1.7.1-1.5.2-3s.5-1.1,1.1-2.1.3-2.6,1.4-.7.8,2.6,2.1,3.7,1.7,2.4,2.8,1.3,3.2-2.3,2-3.7-2,0-2.1-3.2-.3-4.4-1.2-4.3-1.6,1.4-1.7-.3-.6-3.9.7-4,2.8.7,3.7-.9,1.8-2.1.2-2.4a21.2,21.2,0,0,0-3.7-.4c-.9.2-1.5.2-1.4-.6s-.9-1.5.9-1.5,1.3.4,3,.3a7.6,7.6,0,0,0,3.7-1.5c.5-.5,1.1-2.8,1.9-3.3s1.2-.9,1.1-1.5a1.7,1.7,0,0,0-1.1-1.4c-.8-.2-2-.5-2.4,0s-1.2,1.9-2.1,2.3-5.1.1-6.1.6a23.4,23.4,0,0,0-2.5,1.5c-.7.4-2,1-1.8,2.5a17,17,0,0,1,.3,3.4c0,.6-1.3,2.4-1.5,3s.1,2.5-.3,3.4-.6.3-.6,1.6-.3,1.5.1,2.4,1,.8.6,2.1-1,.5-.5,1.9,1.2.8,1.3,2.1-.3,1.7,0,2.7S59.8,51.4,59.7,51.2ZM49.2,44.9s-.3-1.3,1.8-3.4,2.8-2.3,2.8-4.4-.1-2-1.1-3-2.4-1.6-1.2-3.1,1.2-1.9,2.8-2.3,3.2-2.7,3.4-3.6a4.4,4.4,0,0,0-.2-2.5A39.5,39.5,0,0,1,56,18.1a20.4,20.4,0,0,1-.1-3.4c.1-1,1-1,2.1-2.3s1.4-.8,1.4-2.8-.1-4.5-.7-5-.9-.2-2.3-.7-2-1.8-3.9-2.9S49.4-.3,49,.4s.4-1.5-.3,1.6S48,5.9,47.2,6.5s-2.3,1-2.7,2.2,1,2.2-1,4.3-5.6,6.1-8.2,6.6-4.5,1.1-4.5,2,1.1,2,.9,3-2,2-1.8,2.5.9,0,1.4,1.1a19.4,19.4,0,0,1,.5,4.7l2.4,2.6s-1.8,2.6-.9,3.4a9.7,9.7,0,0,1,2.2,2,6.9,6.9,0,0,0,3.8,2.5,9.1,9.1,0,0,1,3.5,1.3c1.1.5,1.5,0,2.9-.1A26.6,26.6,0,0,1,49.2,44.9Zm-23.7-17,.7-1.8s.2,1.9.4,3-.4,2.5.2,3.2.2,1,0,2.1a5.7,5.7,0,0,0,.7,2.8l1.3,1.5,1.4.3a8.4,8.4,0,0,1,.8,1.5,2.8,2.8,0,0,0,1.2,1v2.2c0,.9-1,1.4.1,1.7a19.5,19.5,0,0,0,3.2.2c.8,0,.5.4,1,1.4s1,1.1,1.2,2.5.1,2.4-.4,3-.1,1.1-.8,1.9a4.3,4.3,0,0,1-2.3,1c-.8.1-1,.1-1.3,1s1.6,1.7-.7,1.6-2.3.5-2.8-.8.9-1.7-.9-2.3-.2,1.8-2.8-1.7-3.5-1.1-3.9-4.2-1.5-3.9-3-6.3-2.1-4-3.4-4.3-1.7,1.1-2.4-.5-.6-.8-.6-2.7-.1-1.7-1-3.5a10.9,10.9,0,0,1-1.5-3.5c-.5-1.8-.2-1-2.5-3.8s-2.5-3.2-4.5-4.7S.4,18,.5,16s-1.2-4,0-4.4,1.5-.7,2.8,0,1.4,1.6,2.4,1.9a9.4,9.4,0,0,0,2.3.1c.8,0,.5-1,1.8.5s1.5,1.5,2.1,2.9.6,1.9,1.3,2.6,1.1.8,1.7.4,1.3-1.5,1.6-.8.4,1.2.7,1.7,1-1.2,1,1-.8,3.1.3,2.3l2.3-1.5.4.9c.5,1.3.6,2.4,1.7,2.9a4.5,4.5,0,0,0,1.5.5Z"/></g></g></svg>