<svg xmlns="http://www.w3.org/2000/svg" viewBox="0 0 78 64.1"><defs><style>.cls-1{fill:red;}</style></defs><g id="Layer_2" data-name="Layer 2"><g id="Layer_1-2" data-name="Layer 1"><path id="irkutsk" class="cls-1" d="M76.1,58.8c.3,1.9,0,1,0,1a2.4,2.4,0,0,1-2.1.6c-1.1-.4-1.8-.7-2-1.6s-1.2-1.3-1.2-1.3-1.6-.1-1.6-.6a9,9,0,0,1-.5-2.4c-.2-1.6-.1-2-.7-2s-1.4.2-1.7-.1a1.6,1.6,0,0,1-.6-1.2c0-.8-.1-1.7-.5-1.8a7.4,7.4,0,0,0-1.4-.4c-.3,0-1.6.2-1.7-.3A3.3,3.3,0,0,1,62,47a7,7,0,0,0,.3-1.2,7.8,7.8,0,0,0-.3-1.4,1.2,1.2,0,0,1-.8-.4c-.5-.4-.5-1-1.1-1.1s-1-.3-1.6.3-.9,1.2-1.2,1.3a11.1,11.1,0,0,1-2.8.4,4.9,4.9,0,0,1-1.6-.4l-.4-.5s-.9-.3-.9,0,.3.8,0,1.3-.1.5-.8,1.1-1.1.6-1.2,1.1a.8.8,0,0,0,.3,1c.4.5.6.4.8.9a5.9,5.9,0,0,1,.2,1.3c0,.7.1,1.5-.4,1.9s-.5.3-.8,1.1a7.9,7.9,0,0,1-.8,1.3,1.3,1.3,0,0,0-.1,1.4l1,1.5a1.6,1.6,0,0,1,.4,1.6,3.8,3.8,0,0,1-.9,1.8c-.5.5-.9,1.6-1.3,2s-.2.9-.8.6A2.6,2.6,0,0,1,46,62.8l-.3-1.3-.5-1.9c-.2-.2-1.8-1.1-2.2-.3s-.2,1.6-.8,1.8-.8.3-1.1.7-1,1.5-1.6,1.4a4.6,4.6,0,0,0-1.6-.4c-.9-.2-1.7-.5-2.1.1s-1.4,1.4-2.1,1.1a5.7,5.7,0,0,1-1.8-1,4.8,4.8,0,0,0-2.3-.7,6,6,0,0,1-2.1.1c-1.4,0-2.7-.6-3.6-.6s-3.2-1.1-3.9-1a2.4,2.4,0,0,0-1.3.5c-.8.3-1.3-.2-1.6.3s-.3,1.3-1.2,1.2-1.5-.2-1.8-.5a3,3,0,0,1-.6-.9,2.2,2.2,0,0,0-1-.1H11.3l-1-.9c-.2,0-.9-.5-1.2-.4l-1.7.2s-1.9.2-1.6.6c-1.7-.6-.6-.5-1.7-.9s-.3-1.4-.9-2.9-.9.3-.9.3S1,57.3.6,55.4s.3-.9.6-2.4S.7,51.6.7,49.7s1.1-1,1.1-1,.3-1.7.5-4.5-1.4-.8-2-2.1,0-1.3.3-2a14.5,14.5,0,0,1,1.7-2.8c.9-1.5.6-.8,2.9-1.2s1.4-2.7,3.2-3.3.6-.3,1.9,1,1.8-.4,3.3-.7,1.3-1.2,3.4-.9,1.2.6,1.9,1.9,1.5,1.2,3.3-1,.4-8.3-.9-11.6,2.9-11.1,2.9-11.1a54.4,54.4,0,0,0,6.1-2.2c1.3-.8,1.2-.9,1.5-2.7S32.3.9,33.7.7s1.1,1.7,1.1,1.7,1.5.5,3,.8.7-.8.4-1.7a4,4,0,0,1,0-1.1c.4-1,12.3.1,12.3.1a4.8,4.8,0,0,0-.1,2.9,9.4,9.4,0,0,1,1.1,5c-.4,2-.9,8.1-.6,9.3s.3,4,1.1,4.8a5.5,5.5,0,0,1,1.5,2.1c.4.7,4,1.8,4.6,3.3s.3,1.9,1.3,2.5a4.3,4.3,0,0,1,2.2,3.2c0,1.2,0,3.1.9,2.8s1.9-1.5,2.2-1.8a3.2,3.2,0,0,1,2.9-.4,4.3,4.3,0,0,0,2.5.3,5.4,5.4,0,0,1,2.2.1,8.2,8.2,0,0,1,1,2.1c.1.7-.4,1.2,1.2,1.1s1.9-.1,2.1,1.6a5.3,5.3,0,0,0,1.1,2.8,12.1,12.1,0,0,1,.2,2.3,4.5,4.5,0,0,0-.4,2.6c.2,1.2.9,2.3.3,3.1a10.2,10.2,0,0,0-1.4,3.3,17.1,17.1,0,0,0,0,3.2C76.6,57.3,75.9,56.8,76.1,58.8Z"/></g></g></svg>