<svg xmlns="http://www.w3.org/2000/svg" viewBox="0 0 85.7 68.9"><defs><style>.cls-1{fill:#231f20;}</style></defs><g id="Layer_2" data-name="Layer 2"><g id="Layer_1-2" data-name="Layer 1"><path id="mongolia" class="cls-1" d="M0,18a1.1,1.1,0,0,1,1,.9c.3,1,1.2,2.4.3,3.6a5.7,5.7,0,0,0-.6,5.4c.9,2,2.6,2.3,2.4,3.5s-.4.9-.5,2.6.1,2.8-.3,3.5a6.2,6.2,0,0,1-1.1,2s1.1,1.9,1.7,2.1,1.2,6.5,1.2,6.5,1-.6,1.2.1a20.3,20.3,0,0,1,.6,2.2s1.4.8,1.4,1.2-.1,1.5.2,1.7l1.8.8.4,1.3s.1,1.2.7,1.2a4.9,4.9,0,0,1,1.5.3,2.4,2.4,0,0,0,1.5.5c.6,0,.9-.1.9.4s-.1,1.4.2,1.5l1.3.2a3,3,0,0,0,.6.9c.3.3,1.4.4,1.6.8s.2.9.3,1.3-.2,1.1,1.1,1.2,9-1,9-1l.5.8a2.7,2.7,0,0,0,1.2.7c.6.2,1.7-.2,2.7.2a5.8,5.8,0,0,0,2.2.7h1.4s.2,1.3.7,1.4a14.4,14.4,0,0,0,2.2-.7.9.9,0,0,1,.9-.4c.5.1.6-1.2,1.5-1.2h1.9c.4,0,2.5-1.1,2.6-.2s.1,1.4.6,1.9a3.2,3.2,0,0,0,2.1.9,8.3,8.3,0,0,0,2-.9c.7-.4.9-.8,1.7-.6a9.6,9.6,0,0,1,2,.9,5.8,5.8,0,0,0,1.6.5,6.5,6.5,0,0,0,2.4.3,28.1,28.1,0,0,1,3.5.6,8.8,8.8,0,0,0,3,.9c1-.5.9.5,2.2-1a9.3,9.3,0,0,0,1.9-2.3c1.4-2,3.6-2.2,1.1-2.5s-2.1.5-3-.3-.1-1.2-1.6-1-1.5.3-1.9-.2.8-.8-1.1-.8-1.2.7-2.7-.2-1.7-.5-1.5-1.5.1-1.8,1.1-2.1.7,0,1.4-.5,1-.6,1-1.4,1.3-1.1,1.7-2.1.4-2.5,1.1-2.5.8-.1,1.4,1.6-.9,2.5.9,2.7a22.6,22.6,0,0,0,3.5.1c.7-.1.2.1,1.1,1.1s.8,1.5,1.6,2.1a2.8,2.8,0,0,1,1,1.8s0,.6,1.2.4a13.3,13.3,0,0,1,2.8-.3s-.5-.6.2,1.5,1,1.6,1,3.5-.9,2.9,0,3.5a6.6,6.6,0,0,0,1.8.9s2.7-2.5,2.9-3.6,1-1.5.9-2.4-.4-.3.1-1.4a9.6,9.6,0,0,0,.5-3.1l-1-.4c-.5-.2-.7-.1-1-1.5s.3-1.4-.6-1.7A2.5,2.5,0,0,1,81.6,53c-.3-.7-.1-1.2-.8-1.4s-.5-.2-1.8-1.2-1.2-.5-2.2-1.1-1.2-1-1.2-1.9-.3-1.1.4-1.8,1,.8,1.1-1.5-.6-2.3.5-4.6.9-3.1,1.7-3.9.5,0,2.1-1.7h-.9c-.9-.1-1.1-2-2.3-2.1A2.3,2.3,0,0,1,75.9,30c-.3-1-1.2-3.8-3.1-3.8s-2.3-2.4-4.1-4.6,2.1-1.9,2.1-2.6-.2-.1-.5-2a2.3,2.3,0,0,1-2,.6c-1.2-.3-1.9-.7-2-1.6S65,14.7,65,14.7s-1.5-.1-1.6-.6a14.1,14.1,0,0,1-.5-2.4c-.2-1.6-.1-1.9-.7-1.9s-1.4.1-1.6-.2A1.2,1.2,0,0,1,60,8.4c-.1-.8-.2-1.6-.5-1.8a7.4,7.4,0,0,0-1.4-.4c-.4,0-1.6.2-1.8-.3a4.3,4.3,0,0,1-.1-1.6A7.9,7.9,0,0,0,56.5,3a11.3,11.3,0,0,0-.2-1.4,1.4,1.4,0,0,1-.9-.4C55,.8,55,.3,54.3.1s-1-.3-1.5.3a9.6,9.6,0,0,1-1.3,1.4l-2.8.3a5.8,5.8,0,0,1-1.6-.4l-.4-.5s-.9-.3-.9.1.3.7,0,1.2-.1.5-.8,1.1-1.1.7-1.2,1.1a1.7,1.7,0,0,0,.3,1.1c.4.4.6.3.8.8a3,3,0,0,1,.2,1.3c0,.7.1,1.5-.3,1.9s-.6.3-.9,1.1a5.1,5.1,0,0,1-.8,1.4,1.1,1.1,0,0,0,0,1.3,7.6,7.6,0,0,0,1,1.5,2,2,0,0,1,.3,1.7c-.3.8-.3,1.2-.8,1.7a16.7,16.7,0,0,0-1.3,2c-.4.4-.3.9-.9.6s-1.1-.8-1.1-1.1L40,18.8c-.2-.8-.5-1.7-.6-2s-1.7-1.1-2.1-.3-.3,1.6-.9,1.8-.8.3-1,.7-1,1.5-1.6,1.4a5.3,5.3,0,0,0-1.6-.4c-1-.2-1.7-.5-2.1.1s-1.4,1.4-2.1,1.1a4.1,4.1,0,0,1-1.9-1,4.5,4.5,0,0,0-2.3-.7,8.4,8.4,0,0,1-2.1.2c-1.3-.1-2.7-.7-3.6-.7s-3.1-1.1-3.8-1l-1.4.5c-.7.3-1.3-.2-1.6.3S11,20.1,10.1,20a4.9,4.9,0,0,1-1.8-.5l-.6-.9a2,2,0,0,0-.9-.1,5.4,5.4,0,0,1-1.3,0l-1-.9c-.1,0-.9-.5-1.2-.4l-1.6.2S-.3,17.6,0,18Z"/></g></g></svg>