<svg xmlns="http://www.w3.org/2000/svg" viewBox="0 0 119.2 53.3"><defs><style>.cls-1{fill:#231f20;}</style></defs><g id="Layer_2" data-name="Layer 2"><g id="Layer_1-2" data-name="Layer 1"><path id="northwest_territory" data-name="northwest territory" class="cls-1" d="M89.1,53.3c.7-2.5,8.8-10.1,8.8-10.1s3.2-.4,4.6-1.5-1.7-4.2-1.7-4.2l.7-2.1,2.1,1.8a3,3,0,0,0,2.8,1.4c2.1,0,1.4-2.2,2.8-2.5s2.9-3.9,2.9-3.9,2.8,1.1,5.6-1.8.7-1.4,0-2.8a2.1,2.1,0,0,1,.7-2.5l-2.1-.7s1.4-1,0-3.2-1.8,1.1-3.2,2.2-1,2.1-4.9,1.4,0-2.1-.4-3.6-4.2.7-4.9-1.4-1.8,1.1-1.4-1-.4-5.3-1.8-6,2.8-7.5,2.8-7.5,2.9,1.4,3.2-1,1.8-2.2,1.8-3.6-3.6-.3-3.6-.3l-.7,2.8S99,0,99,3.2s-1.4,3.2-3.5,7.4-.4,6.8-.4,6.8a2.2,2.2,0,0,1,1.4,2.8c-.7,2.1-4.9,1.7-4.9,1.7l-.4-3.8H88.4a22.4,22.4,0,0,0,0,5.3c.3,1.4-7.8.3-9.9-1.5s-4.6,1.5-6.7,2.5-3.9.4-6-.3-1.1,2.8-5.7,2.4-2.1-6.3-3.2-4.2-5.6-1.8-8.1-3.9S41.7,17,41.7,17l-.3-2.5H38.9l-3.2.7a9.2,9.2,0,0,1-4.6.7c-2.1-.3-1.8,1.8-1.8,1.8a11.3,11.3,0,0,1-5.6.7c-3.2-.3-2.8,1.1-4.3,2.1s-6.3-1.4-9.5-2.8-5.3,1.5-8.4.5c0,0-1.7,31.3-1.5,32.1s82.7,3,86.8,2.8S89.1,53.3,89.1,53.3Z"/></g></g></svg>