<svg xmlns="http://www.w3.org/2000/svg" viewBox="0 0 55.3 74.9"><defs><style>.cls-1{fill:#231f20;}</style></defs><g id="Layer_2" data-name="Layer 2"><g id="Layer_1-2" data-name="Layer 1"><path id="ontario" class="cls-1" d="M20.3,3.2c-.7,2.5-1,9.2-1,9.2L21,13.8A25.6,25.6,0,0,0,24.2,18c1.8,1.8,2.8,5.3,5.7,4.6s3.9,2.5,3.9,2.5l2.1-1.4s2.1-1.2,2.5-.5,2.4,1.4,2.4,1.4a11,11,0,0,1,4.1-1.4c1.9-.2.4,1.5.4,1.5l-4.1,2s.9,2.6,1.9,2.3,1.6,4.1.4,4.9.3,2.7.3,2.7l.7,2.5,2,1.4.5,2.3h-.2c-.7,1.9-1,18.9-1,18.9s1-1.4,1.8-1.6,1.7,1.4,2.4,1.6.4-1.4,1.1-2.1.9,0,1.6.5.5,0,1.6-.2,1,2.9,1,3.7-1.7,1.5-1.7,1.5a13.9,13.9,0,0,1-3.6.7c-1-.2-2.3,1.4-3,2.3s-2.1.3-3,.7-.3,1.2-.2,2.4-3.8,4.5-4.7,3.6a19.1,19.1,0,0,0-3.9-3.2c-1.6-.9.3-2.7,1-3.9s.2-4.1-.8-6.9-1.3-3.9-1.8-4.6a13.9,13.9,0,0,1-2.3-4.9c-.5-2.3-2.8,1.6-5.3.8s-5.8,1.1-5.8,1.1.3-4.9-.4-5.3S0,48.3,0,48.3V45.4C0,43.1,3.9,0,3.9,0L22.3.5Z"/></g></g></svg>