<svg xmlns="http://www.w3.org/2000/svg" viewBox="0 0 83.6 87"><defs><style>.cls-1{fill:red;}</style></defs><g id="Layer_2" data-name="Layer 2"><g id="Layer_1-2" data-name="Layer 1"><path id="peru" class="cls-1" d="M34.4,57.6c.9-.2,1,1.6.8,2.6s.1,2,1.2,3.2a19.4,19.4,0,0,1,2.9,3.2c.5.9,1.8,1.6,2,2.6a5.1,5.1,0,0,0,1.9,3c1.2,1,2-.1,2.2-.8s-.1-2.5.2-4.3,2.5.3,2.5.3.8,1.8,1.2,2.5,2,.3,2.8-.4a1.9,1.9,0,0,1,1.7-.6c.5,0,1.5,1,3.3.7s1.8-.4,3.3,1,.3,2.2,1.7,3,1.3,0,2.2.4.4,1.5,1.8,2.4,5,.1,6.2.6,0,1.6,0,2.5,0,3.3-.6,3.5-1.5,2-1.4,3.4,3.4,0,4.8-.6,2-.6,3.3-1.8a51.4,51.4,0,0,1,5.2-3.4c-.2-1.7-3-2.7-3.4-5.4s-.8-4.4-1.4-5-1.2,0-2.1-1.3a7.4,7.4,0,0,0-3-2.8c-1.5-.9-.8-2.2-.5-3.3s-1-4.4-1.8-5.9-1.6-1.5-2-3.3-.5-2.2-1.6-3.1-2.6-1-2.9-1.7.3-1.8-.5-2.6-1.3-2.4-2-3.7-2.8-.1-4.5-.1-1.6-2.2-2.6-2.8-2-.1-3.1-.6-.6-1.4-2.1-1.5-1.7-1.3-2.4-2.5-3.1-2.4-4.1-2.2-1.4,1.3-1.9,1.8-2.4.5-4.3.9-4.3,2.3-7.1,2.4-2.6-2.9-2.4-4.3,3.9-1.7,4.2-3.8-3.3-.3-4.7-1-4.8-.9-5-1.9-1.3-1.1-2.3-1.1-2.4-1.3-3.2-2.7,1.3-2,1.4-3,2.9-.6,3.9-1.3.7-4.7.9-5.3,4.2-.6,4.2-.6a9.7,9.7,0,0,0-1.4-2.6,4.4,4.4,0,0,0-2.2-1C23,9.1,21.9,7.9,21,8s-3.2.1-3.8-.7a4.3,4.3,0,0,0-3.3-1.5c-1.6-.1-2.3,1-3.3-.7s-3-3.9-3.6-4S4,.7,4.7,0C2.8,1.2,2.9,3.8,2.2,5.6a37.6,37.6,0,0,0-2,4.6c-.6,2,.4,1.6,1.1,3.7s-.2,1-.6,2.2S.6,21.4.6,21.4a13.8,13.8,0,0,0,1.3,3.1l2.5,2.7a11.4,11.4,0,0,0,.3,3.7c.5,2,1.4,1.2,1.9,2.2a23.3,23.3,0,0,0,3.1,3.7c.6.4,2,2.6,3.4,3.1s.3,2.3.2,3.3,1.4,3.3,1.9,4.3.7.3,1.2,1a13.2,13.2,0,0,0,2.8,2.3l1.7.6,2.2,1.7a6.7,6.7,0,0,0,2.7,1.1c.8.3,2,3,2.6,3.7s2.8,1.1,3.4,1.2S33.6,57.8,34.4,57.6Z"/></g></g></svg>