<svg xmlns="http://www.w3.org/2000/svg" viewBox="0 0 53 72.7"><defs><style>.cls-1{fill:#231f20;}</style></defs><g id="Layer_2" data-name="Layer 2"><g id="Layer_1-2" data-name="Layer 1"><path id="siam" class="cls-1" d="M44.2,16.6c-1.9-.4.4-1.9-3.2-2.4s-3.4,9.1-3.2,10.1,1.3,1.5,3.5,1.3,1.8,0,2.3,2.2a6.8,6.8,0,0,1-.3,4l2-.7c1.3-.5,3,.7,3.8,4.2a11.4,11.4,0,0,0,2.2,5.5c1.3,2,1,3,1.5,5.8s-.5,6-.7,7.7-3.5,5.3-3.5,6.3-3.3,3.5-3.5,4.5-1.5-.8-1.5-.8-1.3-3.5-1.8-4.5a4.4,4.4,0,0,0-1.2-1.5l.2-2.2a4.9,4.9,0,0,0-2.2-.8,1,1,0,0,1-1-1l-2.3-1.7s-.2-.3-1.5-.5-1,0-1.2,1-.8,1-2,2.2.5.8,1.7,2,.8.8.8,2.8,0,2.7,1.7,7.5,1.5,1.7,1.5,1.7a4.1,4.1,0,0,1,.5,2c0,1.3-1,1.3-1,1.3a15,15,0,0,1-3.2,0c-1.5-.3-.5-.5-3-3.8s-2.5-3.5-3.5-4.2.2-1.8,0-3,0-3-.8-4-.7-1.5-1.2-3.3,0-3.2.2-4.7-1.2-1.8-1.5-3.8-.5-1.7-.5-1.7-4.5-2.8-5.2-1.8-2-2-2-2-3.3,1-3.5-.5-6.8-8.2-7-10-.3-3.5-1.5-3.7-2.1-3-2.1-3L.1,21c-.3-3.4.2-3.7.5-3.9s1.4,0,1.6-1a3.5,3.5,0,0,1,1.5-2.2c.6-.2.7-2.6.7-2.6l1.8-.6s.5-3.9,1.2-4.6A15,15,0,0,0,9.1,3.5c.6-.9,1-.4,1-.4l1.3-.9,1-1.7c.3-.5.4-.6,1-.4s.8,1,1.6,1.4l1.5.9c.4.3.5,1.7.9,2.7s.5.7,1.4,1.2.4.7.3,1,1.4,2.3,2.2,2.2,2.2,2,2.7,2.6,2.3.9,3.3.7.7-1.4.7-1.9.7-1.9,1.1-2h3.2c.8-.2.4-.7.4-.7s1.1-1,1.2-1.4A2.2,2.2,0,0,1,35,5.5c.3-.3,1-.1,1.4,0s1,1.2,1,1.2h1.9c.3,0,.7.8.7,1.6V9.8c0,.6.8.6.8.6a1,1,0,0,1,.7.6c.1.4.1.6.6.6s.5.8.5.8,1.5,1.4.9,1.7S44.2,16.6,44.2,16.6Z"/></g></g></svg>