<svg xmlns="http://www.w3.org/2000/svg" viewBox="0 0 63.9 70.7"><defs><style>.cls-1{fill:red;}</style></defs><g id="Layer_2" data-name="Layer 2"><g id="Layer_1-2" data-name="Layer 1"><path id="southern_europe" data-name="southern europe" class="cls-1" d="M50.4,1.6c.2,0,.5-.8.7-1.2A2.7,2.7,0,0,1,52.3,0a4.5,4.5,0,0,1,2.3.4c.7.4.3.7.4,2s0,1.1.2,1.7.5.4,1.6.7l1.7.3c.8.2.6.8,1.1,1.7s.5,1.6.9,2.5a2.6,2.6,0,0,1,.5,1.5c0,.3-.4,1.5-.4,2.2s-.4.8-.5,1.1a7.6,7.6,0,0,0-.1,1.5c0,.3.5.8.8,1.2a1.9,1.9,0,0,1,.4,1.5c0,.7-.6,1.8-.6,2.4s1,1.1.9,1.6,2.1,2.3,2.1,2.3-1.1.7-.6,1.5,1.1,1.3.9,1.8-.1.5-.8,1-1,.4-1,1.5.9,1.4.3,2.4-.4.9-.9,1.6a10.7,10.7,0,0,0-1,2.2c-.2.7.5.8-.4,1.6s-1.1.4-1.3,1.2.1.9-.4,1.5-.5,1-1,1.4a4.7,4.7,0,0,0-1.1,1c-.7.8-.2,1.1-.7,1.8s-.8.1-1.1,1,0,.5.1,1.3.8.9,0,1.9a9.7,9.7,0,0,1-1.6,2c-.5.4-.5-.1-.9,1s.3,1.5-.5,1.8l-1.8.3c-.8.2-1.2-.1-1.7,0s-.7,0-1.1.7-.7.5-.2,1.2.3.8.8,1.3L49,58.9c.5.5.9.8,1,1.4a7.5,7.5,0,0,1,.1,1.1s.7,1.9.2,2.2-1,.2-1.2,1-.2.5,0,1.3,0,.9.5,1.4A14.3,14.3,0,0,1,51,68.6c.8.7,1.6.8,1.1,1.5a1.6,1.6,0,0,1-1.8.5c-.8-.3-1.2.3-1.7-.8a12.2,12.2,0,0,0-.7-1.4s-.8.2-.8.8,1.9.7-.5.7-2.1.8-2.7,0-.1-1-1-1.2-1,.5-1.4-.3a2.4,2.4,0,0,1-.5-1.8c0-1.2.6-1.2.3-2.7s-.7-1.1-.9-2,0-.8,0-2a2.7,2.7,0,0,0-.4-1.6s-.4-.2-.6-1.5-.1-1.4-.4-2.5-.1-1.5-.7-1.5-.3.5-1.3-.2-.5-1-1.4-1.4-1,.4-1.2-.9a4.4,4.4,0,0,1-.3-2.1V45.6c0-.7.5-.7-.2-1.7s-.6-1.2-1.5-1.3-.6.8-1.4-.4-.9-2-1.9-2.3-.8.4-1.3-.2-.3-.8-.9-1.4.1-.9-1.5-.9-1.6-.8-2.5-.5a1.7,1.7,0,0,0-1.1,1.7,9.2,9.2,0,0,0,.1,1.5c.1.8-.1,1.3.5,1.5s.6-.5.7.6-.1,2.2,1.4,1.6,2.4-1.5,2.5-.7a12.8,12.8,0,0,0,.1,1.8c.3,1,0,1.9.9,2.5s1.3.7,1.6,1.2.3.3.8.6.5,1.4,1.1,2.2,1.4.2,1,1.3-.4,1.6-.9,2a1.9,1.9,0,0,1-2.3.1l-1.4-1.1s.6-1.3-.9-.9a7.7,7.7,0,0,1-2.1.5c-.6,0-1-1-.8.4a2.8,2.8,0,0,0,1.3,1.9,1,1,0,0,1,1,1.2c-.1,1.3.4.9-.3,2.1s-.5,1-1,2.2,0,1.1-.6,2a4.6,4.6,0,0,1-1.7,1.7c-.9.4-.9-.4-1.3,1s-.2,1.4-.9,1.6-2,.3-2.5.7.4.8-1,.5l-1.6-.5a2.3,2.3,0,0,1-1.4-.8c-.5-.6-.1-1.7-.6-1.4s-.9,1.8-1.4.4-.3-1.5-.8-1.7-.8,1.2-.9-.4-.4-1.6.4-2.4,1-1,1.6-1a4.9,4.9,0,0,1,1.5.3c.7.1.6.7,1.2.8s2.5-1,2.8-.2-.3,3,.4,1,.2-2.4,1.1-3.1a21.5,21.5,0,0,0,2.1-2,1.5,1.5,0,0,0-.1-2.2c-.9-.8-1.1,0-1.1-1.6s.2-2-.3-2.9,0-.6-1-1.1a3,3,0,0,1-1.5-1.4,4.5,4.5,0,0,0-2.2-1.3c-.9-.3-.3.3-1.2-1s-1.1-1.8-1.8-1.7-.4,1.2-1.2.3-.5-1-1-1.4-.7,0-1.3-.5-.7-.5-.8-1.5.1-1.4-.5-1.9a5.8,5.8,0,0,0-1.9-.8s.3-.3-1.3,0-1.8.2-2.3.6,2.4-.9.8-2.3S.6,33.7,1.3,33.6A2.7,2.7,0,0,0,3,32c.2-.7.5-2.1.1-2.6A19.1,19.1,0,0,0,.9,27.7s-1.1-.9-.9-1.2a8.8,8.8,0,0,1,1.1-1.3s1,.1,1-1.4a8.7,8.7,0,0,0-.3-3.1c-.4-.9-.5-1.6.2-2.2a14.6,14.6,0,0,0,1.5-2c.1-.3.1-1,1.3-.8A3.1,3.1,0,0,0,7,15.3a6.1,6.1,0,0,0,1.6-1.4s1.3-.1,1.3.3.9,3,1.8,2.7A25.2,25.2,0,0,0,15,15.6c.8-.4.8-.9,1.8-.8a3.9,3.9,0,0,0,2.4-.1c1.1-.3,1.8-.4,2.3-1.1s2.4-2.3,2.4-3.2v-2s3.8-.6,4.7-.6a5.2,5.2,0,0,0,2.3-.5c.5-.3.5-1,.9-1.1a9.2,9.2,0,0,1,1.9.1s0,.3.4.4a1.9,1.9,0,0,1,1.2,1.9,12.9,12.9,0,0,1-.9,2,4.1,4.1,0,0,0-.5,1.8,13,13,0,0,0,1,1.8v3.9h9.2a6,6,0,0,0,.6-2.2c0-.7-.8-1.8-.8-2.1s.1-3.2.1-3.2.6-2.9,1.9-3.8S48,5.5,48.1,5.1s.3-1.3.7-1.5A5,5,0,0,0,50,2.7S49.7,2.7,50.4,1.6Z"/></g></g></svg>