<svg xmlns="http://www.w3.org/2000/svg" viewBox="0 0 60 128.1"><defs><style>.cls-1{fill:blue;}</style></defs><g id="Layer_2" data-name="Layer 2"><g id="Layer_1-2" data-name="Layer 1"><path id="ural" class="cls-1" d="M6.6,97.2c1-.6.1-1.6.1-3.3s-.5-2-.7-3.2a10.9,10.9,0,0,0-.7-2.5c-.2-.9,1.6-1.8,2.3-3.2s0-1.9-.2-3.2-1.7-1.2-1.7-1.2L2.5,78.5l-1.4-.7a12.7,12.7,0,0,1,0-3c.2-1.6,1-2.2,1.7-3.4a6.1,6.1,0,0,0,.8-3.5c0-.9-1.8-1.3-1.8-1.3V57.8A10.7,10.7,0,0,0,.5,53.4c-.5-.9.6-2.5.6-2.5A20,20,0,0,1,0,48.1c-.2-.9,1.1-4.8,1.1-4.8L3,38.5l1.3-2.1s0-3.2.5-3.9.3-4,.3-4-.7-6.8-1.4-7.2L4.4,19l-1-.9L3,15.6.5,15l.3-3.4s1.5-1.5,2.1-1.5S1.4,8,1.2,7.1s0-1.2.5-1.5.2-1,.1-2-.1-1.1-.1-1.1L2.5,0,5.4,1S6,2,6.7,2.1a9.6,9.6,0,0,0,1.7,0c.5,0,.3.1,1,1.7s.8,0,1.9.2,1.1,1.4,1,2.1-.8,1.4-1.4,2.5-.5.8-1.5,1.9,1.5,1.9,1.5,1.9a8.1,8.1,0,0,0,.9,2.4c.6.8.1.2,1.1.7s0,.9,0,2.3.8.2.8.2a4.9,4.9,0,0,1,.8,1.9,15.7,15.7,0,0,0,1,2.3c.9,1.9,1.3-.1,1.3-.1A7.3,7.3,0,0,1,18,23.8c.5,1,2.4.6,2.4.6a21.1,21.1,0,0,1,1.8-1.6c.7-.7.5-.4,1.5-.8s0,.1.6,1.9a10.2,10.2,0,0,1,.5,3.8c.1.8.5,1.5,1.1,1.6s1.2.7,2.1,1.4a9.8,9.8,0,0,0,1.1,1.1A19.4,19.4,0,0,1,30.8,36c0,.4.6,2,.6,2.5s.6,0,1.6,0,1.5.6,1.6,1.9a14.7,14.7,0,0,0,.4,3.2,6.5,6.5,0,0,1-.2,2.8,4.6,4.6,0,0,0,.1,2.1c.1.4,2.5,1,2.8,1.4s1.6.9,1.9,1.6a7.7,7.7,0,0,0,.6,1.5A8.6,8.6,0,0,0,42,54.6c.3.3.2,1.6.6,2.1L44,58.2c.3.4,1.1,2.9.7,3.6s-.3,2-.5,3.4.2.7,1.7,1.6,0,.5.1,1.3.6,1.1,1.3,1.7.3.7.4,1.7.9,1.9,1.4,2.7-.2,1-.7,1.9-1.2.7-2.2,1.7-.5,1.7-.5,2.5a5.3,5.3,0,0,1-1.1,3c-.7.8-.3-1.4-1.5.2s-.7,3.8-.6,4.6.6.8.9,1,.9-.5,1.5-1.4,1.7-.6,2.3-.6a4.9,4.9,0,0,1,2.3,1.7c.6.9,0,3.3-.1,3.6a12,12,0,0,0-.6,2.3c-.1.9,3.8.8,3.8.8S53.6,98,54,98s1.5,0,1.7.8,1.4,2.9,2.2,3.2.3.5.3,1,0,.5.9,1.8.9,4,.9,5.2a3.2,3.2,0,0,1-.3,1.7l-2.5.2s.6,4.2,0,4.5a19.9,19.9,0,0,1-3.8.8s-.1,3.2-.2,3.8-1.7,1.5-2,2.1-.6.5-.3,1.1a4.1,4.1,0,0,1,.4,2c-.1.4.6,1.3-.6,1.5s-1.8.7-2.4.1-.9-1.7-1.8-2.1-1.2-.5-1.3-1.3-.4-2.2-.4-2.2-1.1-1.6-1.6-1.6-2.7.5-3.2.2-2.5-.1-3.2-.8-.9-1.2-1.9-.8a8.7,8.7,0,0,1-2.7.6l-1.6-1.1a8.5,8.5,0,0,1-1.8-.9c-.8-.5-1-1.8-1.3-2.4a7.9,7.9,0,0,0-1.4-1.7c-.4-.3-.9-1-1.4-1.5a4,4,0,0,0-2-1.1c-.7-.2-1.4-.3-1.6-1s0-1.2-.4-1.3l-1.6-.5s-.1-1.5-.6-1.9a23,23,0,0,0-2.3-1.5c-.6-.3-1.4-.4-1.6-1.3a2.1,2.1,0,0,0-.6-1.2s-1.3-.9-1.5-1.4a8.8,8.8,0,0,0-.9-1.6l-1.4-1.6-1.6-.5Z"/></g></g></svg>